<?xml version="1.0" encoding="utf-8"?>
<!-- Generator: Adobe Illustrator 19.0.0, SVG Export Plug-In . SVG Version: 6.00 Build 0)  -->
<svg version="1.1" id="Capa_1" xmlns="http://www.w3.org/2000/svg" xmlns:xlink="http://www.w3.org/1999/xlink" x="0px" y="0px"
	 viewBox="0 0 86.3 101" style="enable-background:new 0 0 86.3 101;" xml:space="preserve">
<style type="text/css">
	.st0{fill:#E62264;}
</style>
<g>
	<g>
		<path class="st0" d="M40.2,0.3c-0.5-0.3-1.1-0.4-1.6-0.1c-0.5,0.3-0.9,0.8-0.9,1.4v19l-12.3,7.9l-12.3-7.9v-19
			c0-0.6-0.3-1.1-0.9-1.4S11.2,0,10.7,0.3C4,5.1,0,12.8,0,21c0,9.7,5.5,18.2,13.5,22.5v46.3c0,6.2,5,11.2,11.2,11.2h1.5
			c6.2,0,11.2-5,11.2-11.2V43.5c8.1-4.3,13.5-12.8,13.5-22.5C50.9,12.8,46.9,5.1,40.2,0.3z"/>
		<path class="st0" d="M82.6,39.3H79V18.7l1.5-2.8c0.3-0.6,0.4-1.2,0.2-1.8l-2.5-11C77.9,1.9,76.8,1,75.6,1h-2.3
			c-1.2,0-2.3,0.9-2.6,2.1l-2.5,10.8c-0.1,0.6-0.1,1.3,0.2,1.8l1.5,2.9v20.7h-3.6c-2.1,0-3.7,1.7-3.7,3.7v46.9
			c0,6.2,5,11.2,11.2,11.2h1.5c6.2,0,11.2-5,11.2-11.2V43C86.3,40.9,84.7,39.3,82.6,39.3z"/>
	</g>
</g>
</svg>
