<svg id="Capa_1" xmlns="http://www.w3.org/2000/svg" viewBox="0 0 121 100"><style>.st0{fill:#8bbf4c}</style><g id="XMLID_2_"><g id="XMLID_3_"><circle id="XMLID_10_" class="st0" cx="28.6" cy="43.1" r="6.1"/><path id="XMLID_9_" class="st0" d="M86 38.2H45.1c-2.7 0-5 2.2-5 5 0 2.7 2.2 5 5 5H86c2.8 0 5-2.2 5-5s-2.3-5-5-5z"/><circle id="XMLID_8_" class="st0" cx="28.6" cy="63.1" r="6.1"/><path id="XMLID_7_" class="st0" d="M86 58.1H45.1c-2.7 0-5 2.2-5 5s2.2 5 5 5H86c2.8 0 5-2.2 5-5s-2.3-5-5-5z"/><path id="XMLID_6_" class="st0" d="M83.8 84.8c-.4.4-.7 1-.8 1.6l-1.7 10.1c-.2.9.1 1.9.8 2.6.6.6 1.3.9 2.1.9h.5l10.1-1.7c.6-.1 1.2-.4 1.6-.8l15.2-15.2L99 69.7 83.8 84.8z"/><path id="XMLID_5_" class="st0" d="M120.2 69.4l-8.4-8.4c-.6-.6-1.3-.9-2.1-.9s-1.5.3-2.1.9l-5.7 5.7 12.6 12.6 5.7-5.7c.6-.6.9-1.3.9-2.1-.1-.8-.4-1.5-.9-2.1z"/><path id="XMLID_4_" class="st0" d="M6.6 25.6h95.3v34.1l2.2-2.2c1.2-1.2 2.8-2 4.5-2.2v-52c0-1.8-1.5-3.3-3.3-3.3H3.3C1.5 0 0 1.5 0 3.3v82.8c0 1.8 1.5 3.3 3.3 3.3h74.1l.7-3.8c.2-1 .5-2 1.1-2.8H6.6V25.6z"/></g></g></svg>