<svg id="Capa_1" xmlns="http://www.w3.org/2000/svg" viewBox="0 0 86.9 100"><style>.st0{fill:#009587}</style><g id="XMLID_2_"><g id="XMLID_3_"><path id="XMLID_34_" class="st0" d="M49 37.8h-1l-1.8.9c-.1.1-.2.2-.1.3l.2.8c0 .1.1.2.2.2h.3l1-.5v6.6c0 .2.1.3.3.3h.9c.2 0 .3-.1.3-.3V38c0-.1-.1-.2-.3-.2z"/><path id="XMLID_31_" class="st0" d="M48.3 22.7c-1.9 0-3.1 1.7-3.1 4.5 0 2.7 1.2 4.4 3 4.4 2 0 3.1-1.7 3.1-4.6-.1-2.7-1.2-4.3-3-4.3zm-.1 7.5c-.8 0-1.3-1.2-1.3-3 0-1.9.5-3.1 1.4-3.1 1.2 0 1.3 1.9 1.3 3 0 1.2-.2 3.1-1.4 3.1z"/><path id="XMLID_28_" class="st0" d="M54.7 37.6c-1.9 0-3.1 1.7-3.1 4.5 0 2.7 1.2 4.4 3 4.4 2 0 3.1-1.7 3.1-4.6-.1-2.6-1.2-4.3-3-4.3zm-.1 7.5c-.8 0-1.4-1.2-1.4-3 0-1.9.5-3.1 1.4-3.1 1.2 0 1.4 1.9 1.4 3-.1 1.2-.2 3.1-1.4 3.1z"/><path id="XMLID_25_" class="st0" d="M41.9 37.6c-1.9 0-3.1 1.7-3.1 4.5 0 2.7 1.2 4.4 3 4.4 2 0 3.1-1.7 3.1-4.6 0-2.6-1.1-4.3-3-4.3zm-.1 7.5c-.8 0-1.4-1.2-1.4-3 0-1.9.5-3.1 1.4-3.1 1.2 0 1.4 1.9 1.4 3 0 1.2-.2 3.1-1.4 3.1z"/><path id="XMLID_24_" class="st0" d="M29.9 22.8h-1l-1.9 1c-.1.1-.2.2-.1.3l.2.8c0 .1.1.2.2.2h.3l1-.5v6.6c0 .2.1.3.3.3H30c.2 0 .3-.1.3-.3v-8.1c-.1-.1-.3-.3-.4-.3z"/><path id="XMLID_23_" class="st0" d="M61.8 37.8h-1l-1.8.9c-.1.1-.2.2-.1.3l.2.8c0 .1.1.2.2.2h.3l1-.5v6.6c0 .2.1.3.3.3H62c.2 0 .3-.1.3-.3V38c-.2-.1-.4-.2-.5-.2z"/><path id="XMLID_22_" class="st0" d="M36.3 22.8h-1l-1.8.9c-.1.1-.2.2-.1.3l.2.8c0 .1.1.2.2.2h.3l1-.5v6.6c0 .2.1.3.3.3h1.1c.2 0 .3-.1.3-.3V23c-.3 0-.4-.2-.5-.2z"/><path id="XMLID_21_" class="st0" d="M39.9 25c0 .1.1.2.2.2h.3l1-.5v6.6c0 .2.1.3.3.3h1.1c.2 0 .3-.1.3-.3v-8.1c0-.2-.1-.3-.3-.3h-1l-1.8.9c-.1.1-.2.2-.1.3v.9z"/><path id="XMLID_18_" class="st0" d="M54.7 22.7c-1.9 0-3.1 1.7-3.1 4.5 0 2.7 1.2 4.4 3 4.4 2 0 3.1-1.7 3.1-4.6-.1-2.7-1.2-4.3-3-4.3zm-.1 7.5c-.8 0-1.4-1.2-1.4-3 0-1.9.5-3.1 1.4-3.1 1.2 0 1.4 1.9 1.4 3-.1 1.2-.2 3.1-1.4 3.1z"/><path id="XMLID_17_" class="st0" d="M68.1 37.8h-1l-1.8.9c-.1.1-.2.2-.1.3l.2.8c0 .1.1.2.2.2h.3l1-.5v6.6c0 .2.1.3.3.3h1.1c.2 0 .3-.1.3-.3V38c-.2-.1-.3-.2-.5-.2z"/><path id="XMLID_8_" class="st0" d="M79.2 14.4C71.8 5.1 61 0 48.8 0c-8.7 0-17.4 2.7-24.5 7.7C16.7 13 11.3 20.3 8.8 29c-1 3.4-1.5 6.2-1.9 8.7-.9 5.2-1.6 8.9-5.7 15-1.1 1.6-1.4 3.1-1 4.6.6 2.2 2.8 3.2 4.5 4 .6.3 1.5.7 1.8.9 1 1.3.9 4.9.9 8.1-.1 4.5-.2 9.2 2 12.6 3.2 4.7 8 4.8 12 4.8 4.6 0 6.7.1 7.2 5.2v1.2c.1 3.4.2 3.8.3 4.3.3 1 1.3 1.6 2.3 1.6h43.2c.8 0 1.6-.4 2-1.1.4-.7.5-1.6.1-2.3-5.4-11.3-1-22.8 3.7-35.1 2.9-7.4 5.8-15.1 6.5-22.9.8-9.1-1.6-17-7.5-24.2zm-19.5-3.6c.9.3 1.7.7 2.6 1.1v.3c0 1.1-.2 3.1-1.4 3.1-.8 0-1.3-1.2-1.3-3 0-.6.1-1.1.1-1.5zM48.2 9.2c1.2 0 1.3 1.9 1.3 3s-.2 3.1-1.4 3.1c-.8 0-1.3-1.2-1.3-3 0-1.9.6-3.1 1.4-3.1zm-14.1 2.4c.1 0 .1-.1.2-.1.7-.4 1.5-.8 2.3-1.1.2.6.2 1.3.2 1.8 0 1.1-.2 3.1-1.4 3.1-.8 0-1.4-1.2-1.4-3 .1-.2.1-.5.1-.7zM28 40.3c.2-.8.6-1.2 1.1-1.2.6 0 .9.5 1.1 1.1-.7-.1-1.5 0-2.2.1zm47 2.2c-.1 0-.2.1-.2.1V38c0-.2-.1-.3-.3-.3h-1l-1.8.9c-.1.1-.2.2-.1.3l.2.8c0 .1.1.2.2.2h.3l1-.5v3.2c-.5 0-1 .2-1.2.9-.4 1.6-1.1 2.9-2.2 4.1-2.4 2.3-10.2 1.8-10.2 1.8s-.5.4-.2 4l-.5.2c-.1.1-.2.2-.1.3l.2.8c0 .1.1.2.2.2h.3l.1-.1v.3c.3 2.4-1.6 3.2-3.9 2.3V53c0-.2-.1-.3-.3-.3h-1l-1.8.9c-.1.1-.2.2-.1.3l.2.8c0 .1.1.2.2.2h.3l1-.5v2.2c-2.4-1.6-5-4.8-6-9.4-.5-2.4-5 1.8-7.8.9-2-.6-3.4-.9-4.4-1.8h.4c.2 0 .3-.1.3-.3v-8.1c0-.2-.1-.3-.3-.3h-1l-1.8.9c-.1.1-.2.2-.1.3l.2.8c0 .1.1.2.2.2h.3l1-.5v5.6c-.3-.6-.5-1.3-.7-2.2-.4-1.7-1.2-2.4-2.2-2.7-.4-1.7-1.4-2.6-2.8-2.6s-2.4 1-2.9 2.6c-.9-.1-1.7-.4-2.5-.9v-1.3c0-.2-.1-.3-.3-.3h-1.1c-1.6-2.3-2.6-6.1-2.5-8.8.4 1.6 1.4 2.6 2.7 2.6 2 0 3.1-1.7 3.1-4.6 0-2.7-1.1-4.4-3-4.4-.4 0-.8.1-1.1.2 1.6-3.5 3.9-5.8 6.9-8v1.3c0 .2.1.3.3.3h1.1c.2 0 .3-.1.3-.3v-2.4c.7-.4 1.5-.9 2.3-1.3.1 2.6 1.2 4.2 3 4.2 2 0 3.1-1.7 3.1-4.6 0-.9-.1-1.7-.3-2.3.5-.2 1-.3 1.6-.5l.2.7c0 .1.1.2.2.2h.3l1-.5v6.6c0 .2.1.3.3.3h1.1c.2 0 .3-.1.3-.3V8.7c1.2-.2 2.4-.3 3.6-.3-.9.7-1.3 2.1-1.3 3.9 0 2.7 1.2 4.4 3 4.4 2 0 3.1-1.7 3.1-4.6 0-1.7-.4-2.9-1.1-3.6.8.1 1.7.2 2.5.3l-.1.1c-.1.1-.2.2-.1.3l.2.8c0 .1.1.2.2.2h.3l1-.5v6.6c0 .2.1.3.3.3h1.1c.2 0 .3-.1.3-.3V9.5c.9.2 1.7.5 2.5.7-.2.6-.3 1.3-.3 2.1 0 2.7 1.2 4.4 3 4.4s2.9-1.4 3.1-4c1 .5 1.9 1.1 2.8 1.8v1.8c0 .2.1.3.3.3h1.1c.2 0 .3-.1.3-.3v-.5c2.4 2 4.5 4.3 6.1 7-.2-.1-.5-.1-.7-.1-1.9 0-3.1 1.7-3.1 4.5 0 2.7 1.2 4.4 3 4.4 1.7 0 2.7-1.2 3-3.3.3 5.2.9 12.3-2.8 14.2zM21.3 27.2c0-1.9.5-3.1 1.4-3.1 1.2 0 1.4 1.9 1.4 3 0 1.2-.2 3.1-1.4 3.1-.8 0-1.4-1.1-1.4-3zm53.8-.1c0 1.2-.2 3.1-1.4 3.1-.8 0-1.4-1.2-1.4-3 0-1.9.5-3.1 1.4-3.1 1.2 0 1.4 1.9 1.4 3z"/><path id="XMLID_7_" class="st0" d="M68.1 22.8h-1l-1.8.9c-.1.1-.2.2-.1.3l.2.8c0 .1.1.2.2.2h.3l1-.5v6.6c0 .2.1.3.3.3h1.1c.2 0 .3-.1.3-.3V23c-.2 0-.3-.2-.5-.2z"/><path id="XMLID_4_" class="st0" d="M61 22.7c-1.9 0-3.1 1.7-3.1 4.5 0 2.7 1.2 4.4 3 4.4 2 0 3.1-1.7 3.1-4.6 0-2.7-1.1-4.3-3-4.3zm0 7.5c-.8 0-1.3-1.2-1.3-3 0-1.9.5-3.1 1.4-3.1 1.2 0 1.3 1.9 1.3 3-.1 1.2-.3 3.1-1.4 3.1z"/></g></g></svg>