<svg id="Capa_1" xmlns="http://www.w3.org/2000/svg" viewBox="0 0 98.2 81.2"><style>.st0{fill:#8bbf4c}</style><circle class="st0" cx="23.2" cy="35" r="4.9"/><path class="st0" d="M69.8 31H36.6c-2.2 0-4 1.8-4 4s1.8 4 4 4h33.1c2.2 0 4-1.8 4-4 .1-2.2-1.7-4-3.9-4z"/><circle class="st0" cx="23.2" cy="51.2" r="4.9"/><path class="st0" d="M69.8 47.1H36.6c-2.2 0-4 1.8-4 4s1.8 4 4 4h33.1c2.2 0 4-1.8 4-4 .1-2.1-1.7-4-3.9-4zM68 68.9c-.4.4-.6.8-.7 1.3l-1.4 8.2c-.1.8.1 1.6.7 2.1.5.5 1.1.7 1.7.7h.4l8.2-1.4c.5-.1.9-.3 1.3-.7l12.3-12.3-10.2-10.3L68 68.9zm29.5-12.6l-6.8-6.8c-.5-.5-1.1-.7-1.7-.7-.6 0-1.3.3-1.7.7l-4.7 4.7 10.2 10.2 4.7-4.7c.5-.5.7-1.1.7-1.7 0-.6-.2-1.2-.7-1.7z"/><path class="st0" d="M5.4 20.7h77.3v27.7l1.8-1.8c1-1 2.3-1.6 3.6-1.8V2.7c0-1.5-1.2-2.7-2.7-2.7H2.7C1.2 0 0 1.2 0 2.7v67.2c0 1.5 1.2 2.7 2.7 2.7h60.1l.5-3.1c.1-.8.4-1.6.9-2.3H5.4V20.7z"/></svg>