<?xml version="1.0" encoding="utf-8"?>
<!-- Generator: Adobe Illustrator 19.0.0, SVG Export Plug-In . SVG Version: 6.00 Build 0)  -->
<svg version="1.1" id="Capa_1" xmlns="http://www.w3.org/2000/svg" xmlns:xlink="http://www.w3.org/1999/xlink" x="0px" y="0px"
	 viewBox="0 0 96.1 96.1" style="enable-background:new 0 0 96.1 96.1;" xml:space="preserve">
<style type="text/css">
	.st0{fill:#1BB7D0;}
</style>
<g>
	<g>
		<path class="st0" d="M9.3,53.7C16.7,43.1,21,36.3,24.2,31.3C12.1,32.3,0.4,47.4,0.4,47.4l8,8C8.7,54.9,9,54.3,9.3,53.7z"/>
		<path class="st0" d="M40.6,87.6l8,8c0,0,15.1-11.6,16.2-23.8c-5,3.2-11.9,7.5-22.5,14.9C41.8,87.1,41.2,87.4,40.6,87.6z"/>
		<path class="st0" d="M28.5,83.5c-1.4,0.6-2.7,1.1-4.1,1.6c-3.8,1.3-7.6,2.1-11.6,2.6c-1.6,0.2-3.3,0.4-5,0.5c0-0.2,0-0.4,0-0.6
			c0.3-4,1-8,1.9-11.9c0.5-1.9,1.1-3.7,1.7-5.5c0.4-1.1,0.9-2.2,1.4-3.3L12,66.1c-2,1.3-3.7,3-5.1,4.9c-2.1,2.8-3.7,5.9-4.9,9.3
			c-1.2,3.6-1.9,7.4-2,11.1c0,0.5-0.1,1.1,0,1.6c0.1,0.7,0.4,1.3,0.9,1.8c0.4,0.5,1,0.9,1.7,1.1c0.5,0.2,1.1,0.2,1.7,0.2
			c3.4,0,6.9-0.6,10.2-1.6c6-1.8,12-5.1,15.6-10.4l-0.9-0.9C28.9,83.3,28.7,83.4,28.5,83.5z"/>
		<path class="st0" d="M95.1,1C95.1,1,95.1,1,95.1,1c-0.6-0.6-1.5-1-2.3-1c0,0,0,0-0.1,0C82,0.2,55.6,2.2,41.6,16.2
			c-6.4,6.4-8.4,9.7-13,16.9c-3.3,5.2-7.7,12.4-15.9,24.1c-0.9,1.3-0.8,3.1,0.4,4.2L34.5,83c0.6,0.6,1.5,1,2.4,1
			c0.7,0,1.3-0.2,1.9-0.6c11.8-8.2,18.9-12.6,24.1-15.9c7.3-4.5,10.6-6.6,16.9-13c14-14,16-40.4,16.2-51.1C96.1,2.5,95.7,1.6,95.1,1
			z M70.3,41.4c-4.3,4.3-11.3,4.3-15.6,0c-4.3-4.3-4.3-11.3,0-15.6c4.3-4.3,11.3-4.3,15.6,0C74.6,30.1,74.6,37.1,70.3,41.4z"/>
	</g>
</g>
</svg>
