<svg id="Capa_1" xmlns="http://www.w3.org/2000/svg" viewBox="0 0 96.1 96.1"><style>.st0{fill:#1bb7d0}</style><path class="st0" d="M9.3 53.7C16.7 43.1 21 36.3 24.2 31.3 12.1 32.3.4 47.4.4 47.4l8 8c.3-.5.6-1.1.9-1.7zm31.3 33.9l8 8S63.7 84 64.8 71.8c-5 3.2-11.9 7.5-22.5 14.9-.5.4-1.1.7-1.7.9zm-12.1-4.1c-1.4.6-2.7 1.1-4.1 1.6-3.8 1.3-7.6 2.1-11.6 2.6-1.6.2-3.3.4-5 .5v-.6c.3-4 1-8 1.9-11.9.5-1.9 1.1-3.7 1.7-5.5.4-1.1.9-2.2 1.4-3.3l-.8-.8c-2 1.3-3.7 3-5.1 4.9-2.1 2.8-3.7 5.9-4.9 9.3C.8 83.9.1 87.7 0 91.4c0 .5-.1 1.1 0 1.6.1.7.4 1.3.9 1.8.4.5 1 .9 1.7 1.1.5.2 1.1.2 1.7.2 3.4 0 6.9-.6 10.2-1.6 6-1.8 12-5.1 15.6-10.4l-.9-.9c-.3.1-.5.2-.7.3zM95.1 1c-.6-.6-1.5-1-2.3-1h-.1C82 .2 55.6 2.2 41.6 16.2c-6.4 6.4-8.4 9.7-13 16.9-3.3 5.2-7.7 12.4-15.9 24.1-.9 1.3-.8 3.1.4 4.2L34.5 83c.6.6 1.5 1 2.4 1 .7 0 1.3-.2 1.9-.6 11.8-8.2 18.9-12.6 24.1-15.9 7.3-4.5 10.6-6.6 16.9-13 14-14 16-40.4 16.2-51.1.1-.9-.3-1.8-.9-2.4zM70.3 41.4c-4.3 4.3-11.3 4.3-15.6 0-4.3-4.3-4.3-11.3 0-15.6 4.3-4.3 11.3-4.3 15.6 0 4.3 4.3 4.3 11.3 0 15.6z"/></svg>