<svg id="Capa_1" xmlns="http://www.w3.org/2000/svg" viewBox="0 0 134.1 100"><style>.st0{fill:#e74539}</style><g id="XMLID_6_"><g id="XMLID_7_"><path id="XMLID_4_" class="st0" d="M69.4 79.2c-.6-.2-1.3-.3-2-.3h-7v-8h14.3c3-2.7 6.7-4.4 10.6-5.6-1-1.5-1.9-3-2.6-4.7H10.3V10.3h83.3V23c3.1-1.2 6.6-1.9 10.3-1.9V8.9c0-4.9-4-8.9-8.9-8.9H8.9C4 0 0 4 0 8.9V62c0 4.9 4 8.9 8.9 8.9h34.5v8h-7c-3.3 0-6 2.7-6 6s2.7 6 6 6h31.3c.2-4.5.6-8.3 1.7-11.7z"/><g id="XMLID_12_"><path id="XMLID_3_" class="st0" d="M134.1 95.7c-.2-8.8-.3-14.6-3-18.9-3.1-4.9-9.1-6.9-17.7-8.5-.1 0-.9-.2-2.4-.3-.5 0-.8-1.1-.1-1.4 6.4-3.3 10.6-11 10.6-19.4 0-7-1-11.5-3.1-14.9-2.7-4.1-8.6-6.3-14.5-6.3-5.8 0-11.8 2.1-14.5 6.3-2.2 3.3-3.1 7.9-3.1 14.9 0 8.4 4.2 16.1 10.6 19.4.7.3.4 1.4-.1 1.4-1.5.2-2.3.3-2.4.3-8.6 1.6-14.6 3.5-17.7 8.5-2.7 4.3-2.8 10.1-3 18.9V97c0 .8.3 1.5.8 2.1.5.6 1.3.9 2.1.9h54.8c.8 0 1.5-.3 2.1-.9.5-.6.8-1.3.8-2.1l-.2-1.3z"/></g><g id="XMLID_8_"><path id="XMLID_9_" class="st0" d="M65.1 25.9c.5-.5 1.3-.5 1.8 0l1.5 1.5.9-.9c.8-.8.8-2.2 0-3.1l-3.1-3.1-1.9-1.8c-.8-.8-2.2-.8-3.1 0l-1.8 1.8-5.2 5.2-8.6 8.6-1.3-1.3c-2-2-5.3-2-7.3 0l-5.4 5.4c-2 2-2 5.3 0 7.3l6.5 6.5c2 2 5.3 2 7.3 0l5.5-5.4c2-2 2-5.3 0-7.3l-1.2-1.2 7.1-7.1 2.5 2.5c.8.8 2.2.8 3.1 0l1.1-1.1-2.6-2.6c-.5-.5-.5-1.3 0-1.8s1.3-.5 1.8 0l2.6 2.6 1.5-1.5-1.5-1.5c-.7-.4-.7-1.2-.2-1.7zM42.9 47l-.8.8c-.5.5-1.3.5-1.8 0l-4.5-4.5c-.5-.5-.5-1.3 0-1.8l.8-.8c.5-.5 1.3-.5 1.8 0l4.5 4.5c.5.5.5 1.3 0 1.8z"/></g></g></g></svg>