<svg id="Capa_1" xmlns="http://www.w3.org/2000/svg" viewBox="0 0 85.5 100"><style>.st0{fill:#e62264}</style><path id="XMLID_2_" class="st0" d="M39.8.3c-.5-.3-1.1-.4-1.6-.1-.5.3-.8.8-.8 1.4v18.8l-12.2 7.8L13 20.4V1.6c0-.6-.3-1.1-.8-1.4s-1.1-.2-1.6.1C4 5 0 12.7 0 20.8c0 9.6 5.4 18 13.4 22.3V89c0 6.1 5 11.1 11.1 11.1H26c6-.1 11-5.1 11-11.2V43.1c8-4.2 13.4-12.6 13.4-22.3C50.4 12.7 46.5 5 39.8.3z"/><path id="XMLID_1_" class="st0" d="M81.8 38.9h-3.6V18.5l1.5-2.7c.3-.6.4-1.2.2-1.8L77.4 3.1c-.3-1.2-1.3-2-2.6-2h-2.3c-1.2 0-2.3.8-2.6 2l-2.5 10.7c-.1.6-.1 1.2.2 1.8l1.5 2.9V39h-3.6c-2 0-3.7 1.7-3.7 3.7v46.4c0 6.1 5 11.1 11.1 11.1h1.5c6.1 0 11.1-5 11.1-11.1V42.6c0-2.1-1.7-3.7-3.7-3.7z"/></svg>