<?xml version="1.0" encoding="utf-8"?>
<!-- Generator: Adobe Illustrator 19.0.0, SVG Export Plug-In . SVG Version: 6.00 Build 0)  -->
<svg version="1.1" id="Capa_1" xmlns="http://www.w3.org/2000/svg" xmlns:xlink="http://www.w3.org/1999/xlink" x="0px" y="0px"
	 viewBox="0 0 74.3 85.6" style="enable-background:new 0 0 74.3 85.6;" xml:space="preserve">
<style type="text/css">
	.st0{fill:#009587;}
</style>
<g>
	<g>
		<path class="st0" d="M41.9,32.3h-0.8c0,0-0.1,0-0.1,0l-1.5,0.8c-0.1,0.1-0.2,0.2-0.1,0.3l0.2,0.7c0,0.1,0.1,0.1,0.1,0.2
			c0.1,0,0.2,0,0.2,0l0.9-0.5v5.6c0,0.1,0.1,0.2,0.2,0.2h0.9c0.1,0,0.2-0.1,0.2-0.2v-6.9C42.2,32.4,42.1,32.3,41.9,32.3z"/>
		<path class="st0" d="M41.3,19.4c-1.6,0-2.7,1.5-2.7,3.8c0,2.3,1,3.8,2.5,3.8c1.7,0,2.7-1.4,2.7-3.9C43.9,20.8,42.9,19.4,41.3,19.4
			z M41.3,25.9c-0.7,0-1.2-1-1.2-2.6c0-1.6,0.5-2.6,1.2-2.6c1,0,1.2,1.6,1.2,2.6C42.4,24.2,42.3,25.9,41.3,25.9z"/>
		<path class="st0" d="M46.8,32.2c-1.6,0-2.7,1.5-2.7,3.8c0,2.3,1,3.8,2.5,3.8c1.7,0,2.7-1.4,2.7-3.9C49.3,33.6,48.4,32.2,46.8,32.2
			z M46.7,38.6c-0.7,0-1.2-1-1.2-2.6c0-1.6,0.5-2.6,1.2-2.6c1,0,1.2,1.6,1.2,2.6C47.9,37,47.7,38.6,46.7,38.6z"/>
		<path class="st0" d="M35.9,32.2c-1.6,0-2.7,1.5-2.7,3.8c0,2.3,1,3.8,2.5,3.8c1.7,0,2.7-1.4,2.7-3.9C38.4,33.6,37.4,32.2,35.9,32.2
			z M35.8,38.6c-0.7,0-1.2-1-1.2-2.6c0-1.6,0.5-2.6,1.2-2.6c1,0,1.2,1.6,1.2,2.6C37,37,36.8,38.6,35.8,38.6z"/>
		<path class="st0" d="M25.6,19.5h-0.8c0,0-0.1,0-0.1,0l-1.5,0.8C23,20.4,23,20.6,23,20.7l0.2,0.7c0,0.1,0.1,0.1,0.1,0.2
			c0.1,0,0.2,0,0.2,0l0.9-0.5v5.6c0,0.1,0.1,0.2,0.2,0.2h0.9c0.1,0,0.2-0.1,0.2-0.2v-6.9C25.8,19.7,25.7,19.5,25.6,19.5z"/>
		<path class="st0" d="M52.9,32.3h-0.8c0,0-0.1,0-0.1,0l-1.5,0.8c-0.1,0.1-0.2,0.2-0.1,0.3l0.2,0.7c0,0.1,0.1,0.1,0.1,0.2
			c0.1,0,0.2,0,0.2,0l0.9-0.5v5.6c0,0.1,0.1,0.2,0.2,0.2h0.9c0.1,0,0.2-0.1,0.2-0.2v-6.9C53.1,32.4,53,32.3,52.9,32.3z"/>
		<path class="st0" d="M31,19.5h-0.8c0,0-0.1,0-0.1,0l-1.5,0.8c-0.1,0.1-0.2,0.2-0.1,0.3l0.2,0.7c0,0.1,0.1,0.1,0.1,0.2
			c0.1,0,0.2,0,0.2,0l0.9-0.5v5.6c0,0.1,0.1,0.2,0.2,0.2H31c0.1,0,0.2-0.1,0.2-0.2v-6.9C31.3,19.7,31.2,19.5,31,19.5z"/>
		<path class="st0" d="M34.1,21.4c0,0.1,0.1,0.1,0.1,0.2c0.1,0,0.2,0,0.2,0l0.9-0.5v5.6c0,0.1,0.1,0.2,0.2,0.2h0.9
			c0.1,0,0.2-0.1,0.2-0.2v-6.9c0-0.1-0.1-0.2-0.2-0.2h-0.8c0,0-0.1,0-0.1,0l-1.5,0.8c-0.1,0.1-0.2,0.2-0.1,0.3L34.1,21.4z"/>
		<path class="st0" d="M46.8,19.4c-1.6,0-2.7,1.5-2.7,3.8c0,2.3,1,3.8,2.5,3.8c1.7,0,2.7-1.4,2.7-3.9C49.3,20.8,48.4,19.4,46.8,19.4
			z M46.7,25.9c-0.7,0-1.2-1-1.2-2.6c0-1.6,0.5-2.6,1.2-2.6c1,0,1.2,1.6,1.2,2.6C47.9,24.2,47.7,25.9,46.7,25.9z"/>
		<path class="st0" d="M58.3,32.3h-0.8c0,0-0.1,0-0.1,0l-1.5,0.8c-0.1,0.1-0.2,0.2-0.1,0.3l0.2,0.7c0,0.1,0.1,0.1,0.1,0.2
			c0.1,0,0.2,0,0.2,0l0.9-0.5v5.6c0,0.1,0.1,0.2,0.2,0.2h0.9c0.1,0,0.2-0.1,0.2-0.2v-6.9C58.6,32.4,58.5,32.3,58.3,32.3z"/>
		<path class="st0" d="M67.8,12.3C61.4,4.4,52.2,0,41.8,0c-7.4,0-14.9,2.3-21,6.6C14.2,11.1,9.7,17.4,7.5,24.8
			c-0.8,2.9-1.3,5.3-1.6,7.5C5.1,36.7,4.5,39.9,1,45c-0.9,1.4-1.2,2.7-0.9,3.9c0.5,1.9,2.4,2.8,3.9,3.4c0.5,0.2,1.3,0.6,1.5,0.8
			c0.9,1.1,0.8,4.2,0.7,6.9C6.2,64,6.1,68,8,70.9c2.7,4.1,6.9,4.1,10.2,4.1c3.9,0,5.7,0.1,6.1,4.4c0,0.1,0,0.6,0,1
			c0.1,2.9,0.2,3.3,0.3,3.7c0.3,0.8,1.1,1.4,2,1.4h36.9c0.7,0,1.4-0.4,1.8-1s0.4-1.4,0.1-2c-4.7-9.6-0.8-19.5,3.2-30
			c2.5-6.4,5-12.9,5.6-19.6C74.9,25.3,72.8,18.5,67.8,12.3z M51.1,9.2c0.7,0.3,1.5,0.6,2.2,1c0,0.1,0,0.2,0,0.3c0,1-0.2,2.6-1.2,2.6
			c-0.7,0-1.2-1-1.2-2.6C51,10,51.1,9.6,51.1,9.2z M41.3,7.9c1,0,1.2,1.6,1.2,2.6c0,1-0.2,2.6-1.2,2.6c-0.7,0-1.2-1-1.2-2.6
			C40.1,8.9,40.6,7.9,41.3,7.9z M29.2,9.9c0.1,0,0.1-0.1,0.2-0.1c0.6-0.3,1.3-0.6,2-0.9c0.1,0.5,0.2,1.1,0.2,1.5
			c0,1-0.2,2.6-1.2,2.6c-0.7,0-1.2-1-1.2-2.6C29.2,10.3,29.2,10.1,29.2,9.9z M23.9,34.5c0.2-0.7,0.5-1,1-1c0.5,0,0.8,0.4,1,0.9
			C25.2,34.4,24.6,34.4,23.9,34.5z M64.2,36.4c-0.1,0-0.1,0.1-0.2,0.1v-3.9c0-0.1-0.1-0.2-0.2-0.2H63c0,0-0.1,0-0.1,0l-1.5,0.8
			c-0.1,0.1-0.2,0.2-0.1,0.3l0.2,0.7c0,0.1,0.1,0.1,0.1,0.2c0.1,0,0.2,0,0.2,0l0.9-0.5v2.7c-0.5,0-0.8,0.1-1,0.7
			c-0.3,1.3-0.9,2.5-1.9,3.5c-2.1,1.9-8.7,1.5-8.7,1.5s-0.4,0.3-0.2,3.4l-0.4,0.2c-0.1,0.1-0.2,0.2-0.1,0.3l0.2,0.7
			c0,0.1,0.1,0.1,0.1,0.2c0.1,0,0.2,0,0.2,0L51,47c0,0.1,0,0.2,0,0.3c0.3,2.1-1.3,2.7-3.3,1.9v-3.9c0-0.1-0.1-0.2-0.2-0.2h-0.8
			c0,0-0.1,0-0.1,0L45,45.9c-0.1,0.1-0.2,0.2-0.1,0.3l0.2,0.7c0,0.1,0.1,0.1,0.1,0.2c0.1,0,0.2,0,0.2,0l0.9-0.5v1.9
			c-2.1-1.4-4.3-4.1-5.2-8.1c-0.5-2.1-4.3,1.5-6.6,0.8c-1.7-0.5-2.9-0.8-3.8-1.5H31c0.1,0,0.2-0.1,0.2-0.2v-6.9
			c0-0.1-0.1-0.2-0.2-0.2h-0.8c0,0-0.1,0-0.1,0l-1.5,0.8c-0.1,0.1-0.2,0.2-0.1,0.3l0.2,0.7c0,0.1,0.1,0.1,0.1,0.2c0.1,0,0.2,0,0.2,0
			l0.9-0.5v4.8c-0.3-0.5-0.5-1.1-0.6-1.9c-0.3-1.5-1-2.1-1.9-2.3c-0.3-1.4-1.2-2.2-2.4-2.2c-1.2,0-2.1,0.8-2.5,2.2
			c-0.7-0.1-1.5-0.3-2.1-0.8v-1.1c0-0.1-0.1-0.2-0.2-0.2h-0.8c0,0-0.1,0-0.1,0l-0.1,0c-1.4-2-2.2-5.2-2.1-7.5
			c0.4,1.4,1.2,2.2,2.4,2.2c1.7,0,2.7-1.4,2.7-3.9c0-2.3-0.9-3.7-2.5-3.7c-0.3,0-0.7,0.1-0.9,0.2c1.4-3,3.3-5,5.9-6.8v1.1
			c0,0.1,0.1,0.2,0.2,0.2h0.9c0.1,0,0.2-0.1,0.2-0.2v-2.1c0.6-0.4,1.3-0.8,1.9-1.1c0.1,2.2,1,3.6,2.5,3.6c1.7,0,2.7-1.4,2.7-3.9
			c0-0.8-0.1-1.4-0.3-2C33.1,8.3,33.5,8.2,34,8l0.1,0.6c0,0.1,0.1,0.1,0.1,0.2c0.1,0,0.2,0,0.2,0l0.9-0.5v5.6c0,0.1,0.1,0.2,0.2,0.2
			h0.9c0.1,0,0.2-0.1,0.2-0.2V7.5c1-0.1,2-0.2,3.1-0.3c-0.7,0.6-1.1,1.8-1.1,3.3c0,2.3,1,3.8,2.5,3.8c1.7,0,2.7-1.4,2.7-3.9
			c0-1.4-0.3-2.5-1-3.1c0.7,0.1,1.5,0.1,2.2,0.3l-0.1,0c-0.1,0.1-0.2,0.2-0.1,0.3L45,8.6c0,0.1,0.1,0.1,0.1,0.2c0.1,0,0.2,0,0.2,0
			l0.9-0.5v5.6c0,0.1,0.1,0.2,0.2,0.2h0.9c0.1,0,0.2-0.1,0.2-0.2V8.1c0.7,0.2,1.5,0.4,2.2,0.6c-0.2,0.5-0.2,1.1-0.2,1.8
			c0,2.3,1,3.8,2.5,3.8c1.6,0,2.5-1.2,2.6-3.4c0.8,0.5,1.6,1,2.4,1.5v1.5c0,0.1,0.1,0.2,0.2,0.2h0.9c0.1,0,0.2-0.1,0.2-0.2v-0.4
			c2.1,1.7,3.9,3.7,5.2,6c-0.2-0.1-0.4-0.1-0.6-0.1c-1.6,0-2.7,1.5-2.7,3.8c0,2.3,1,3.8,2.5,3.8c1.4,0,2.3-1,2.6-2.9
			C66.8,28.6,67.4,34.8,64.2,36.4z M18.3,23.3c0-1.6,0.5-2.6,1.2-2.6c1,0,1.2,1.6,1.2,2.6c0,1-0.2,2.6-1.2,2.6
			C18.7,25.9,18.3,24.9,18.3,23.3z M64.2,23.2c0,1-0.2,2.6-1.2,2.6c-0.7,0-1.2-1-1.2-2.6c0-1.6,0.5-2.6,1.2-2.6
			C64.1,20.7,64.2,22.3,64.2,23.2z"/>
		<path class="st0" d="M58.3,19.5h-0.8c0,0-0.1,0-0.1,0l-1.5,0.8c-0.1,0.1-0.2,0.2-0.1,0.3l0.2,0.7c0,0.1,0.1,0.1,0.1,0.2
			c0.1,0,0.2,0,0.2,0l0.9-0.5v5.6c0,0.1,0.1,0.2,0.2,0.2h0.9c0.1,0,0.2-0.1,0.2-0.2v-6.9C58.6,19.7,58.5,19.5,58.3,19.5z"/>
		<path class="st0" d="M52.2,19.4c-1.6,0-2.7,1.5-2.7,3.8c0,2.3,1,3.8,2.5,3.8c1.7,0,2.7-1.4,2.7-3.9C54.8,20.8,53.8,19.4,52.2,19.4
			z M52.2,25.9c-0.7,0-1.2-1-1.2-2.6c0-1.6,0.5-2.6,1.2-2.6c1,0,1.2,1.6,1.2,2.6C53.3,24.2,53.2,25.9,52.2,25.9z"/>
	</g>
</g>
</svg>
