<svg id="Capa_1" xmlns="http://www.w3.org/2000/svg" viewBox="0 0 74.3 85.6"><style>.st0{fill:#009587}</style><path class="st0" d="M41.9 32.3H41l-1.5.8c-.1.1-.2.2-.1.3l.2.7c0 .1.1.1.1.2h.2l.9-.5v5.6c0 .1.1.2.2.2h.9c.1 0 .2-.1.2-.2v-6.9c.1-.1 0-.2-.2-.2zm-.6-12.9c-1.6 0-2.7 1.5-2.7 3.8s1 3.8 2.5 3.8c1.7 0 2.7-1.4 2.7-3.9.1-2.3-.9-3.7-2.5-3.7zm0 6.5c-.7 0-1.2-1-1.2-2.6s.5-2.6 1.2-2.6c1 0 1.2 1.6 1.2 2.6-.1.9-.2 2.6-1.2 2.6zm5.5 6.3c-1.6 0-2.7 1.5-2.7 3.8s1 3.8 2.5 3.8c1.7 0 2.7-1.4 2.7-3.9 0-2.3-.9-3.7-2.5-3.7zm-.1 6.4c-.7 0-1.2-1-1.2-2.6s.5-2.6 1.2-2.6c1 0 1.2 1.6 1.2 2.6s-.2 2.6-1.2 2.6zm-10.8-6.4c-1.6 0-2.7 1.5-2.7 3.8s1 3.8 2.5 3.8c1.7 0 2.7-1.4 2.7-3.9 0-2.3-1-3.7-2.5-3.7zm-.1 6.4c-.7 0-1.2-1-1.2-2.6s.5-2.6 1.2-2.6c1 0 1.2 1.6 1.2 2.6s-.2 2.6-1.2 2.6zM25.6 19.5h-.9l-1.5.8c-.2.1-.2.3-.2.4l.2.7c0 .1.1.1.1.2h.2l.9-.5v5.6c0 .1.1.2.2.2h.9c.1 0 .2-.1.2-.2v-6.9c.1-.1 0-.3-.1-.3zm27.3 12.8H52l-1.5.8c-.1.1-.2.2-.1.3l.2.7c0 .1.1.1.1.2h.2l.9-.5v5.6c0 .1.1.2.2.2h.9c.1 0 .2-.1.2-.2v-6.9c0-.1-.1-.2-.2-.2zM31 19.5h-.9l-1.5.8c-.1.1-.2.2-.1.3l.2.7c0 .1.1.1.1.2h.2l.9-.5v5.6c0 .1.1.2.2.2h.9c.1 0 .2-.1.2-.2v-6.9c.1 0 0-.2-.2-.2zm3.1 1.9c0 .1.1.1.1.2h.2l.9-.5v5.6c0 .1.1.2.2.2h.9c.1 0 .2-.1.2-.2v-6.9c0-.1-.1-.2-.2-.2h-.9l-1.5.8c-.1.1-.2.2-.1.3l.2.7zm12.7-2c-1.6 0-2.7 1.5-2.7 3.8s1 3.8 2.5 3.8c1.7 0 2.7-1.4 2.7-3.9 0-2.3-.9-3.7-2.5-3.7zm-.1 6.5c-.7 0-1.2-1-1.2-2.6s.5-2.6 1.2-2.6c1 0 1.2 1.6 1.2 2.6 0 .9-.2 2.6-1.2 2.6zm11.6 6.4h-.9l-1.5.8c-.1.1-.2.2-.1.3l.2.7c0 .1.1.1.1.2h.2l.9-.5v5.6c0 .1.1.2.2.2h.9c.1 0 .2-.1.2-.2v-6.9c.1-.1 0-.2-.2-.2z"/><path class="st0" d="M67.8 12.3C61.4 4.4 52.2 0 41.8 0c-7.4 0-14.9 2.3-21 6.6-6.6 4.5-11.1 10.8-13.3 18.2-.8 2.9-1.3 5.3-1.6 7.5C5.1 36.7 4.5 39.9 1 45c-.9 1.4-1.2 2.7-.9 3.9.5 1.9 2.4 2.8 3.9 3.4.5.2 1.3.6 1.5.8.9 1.1.8 4.2.7 6.9 0 4-.1 8 1.8 10.9C10.7 75 14.9 75 18.2 75c3.9 0 5.7.1 6.1 4.4v1c.1 2.9.2 3.3.3 3.7.3.8 1.1 1.4 2 1.4h36.9c.7 0 1.4-.4 1.8-1s.4-1.4.1-2c-4.7-9.6-.8-19.5 3.2-30 2.5-6.4 5-12.9 5.6-19.6.7-7.6-1.4-14.4-6.4-20.6zM51.1 9.2c.7.3 1.5.6 2.2 1v.3c0 1-.2 2.6-1.2 2.6-.7 0-1.2-1-1.2-2.6.1-.5.2-.9.2-1.3zm-9.8-1.3c1 0 1.2 1.6 1.2 2.6s-.2 2.6-1.2 2.6c-.7 0-1.2-1-1.2-2.6s.5-2.6 1.2-2.6zm-12.1 2c.1 0 .1-.1.2-.1.6-.3 1.3-.6 2-.9.1.5.2 1.1.2 1.5 0 1-.2 2.6-1.2 2.6-.7 0-1.2-1-1.2-2.6v-.5zm-5.3 24.6c.2-.7.5-1 1-1s.8.4 1 .9c-.7 0-1.3 0-2 .1zm40.3 1.9c-.1 0-.1.1-.2.1v-3.9c0-.1-.1-.2-.2-.2h-.9l-1.5.8c-.1.1-.2.2-.1.3l.2.7c0 .1.1.1.1.2h.2l.9-.5v2.7c-.5 0-.8.1-1 .7-.3 1.3-.9 2.5-1.9 3.5-2.1 1.9-8.7 1.5-8.7 1.5s-.4.3-.2 3.4l-.4.2c-.1.1-.2.2-.1.3l.2.7c0 .1.1.1.1.2h.2l.1-.1v.3c.3 2.1-1.3 2.7-3.3 1.9v-3.9c0-.1-.1-.2-.2-.2h-.9l-1.6.8c-.1.1-.2.2-.1.3l.2.7c0 .1.1.1.1.2h.2l.9-.5v1.9c-2.1-1.4-4.3-4.1-5.2-8.1-.5-2.1-4.3 1.5-6.6.8-1.7-.5-2.9-.8-3.8-1.5h.3c.1 0 .2-.1.2-.2v-6.9c0-.1-.1-.2-.2-.2h-.9l-1.5.8c-.1.1-.2.2-.1.3l.2.7c0 .1.1.1.1.2h.2l.9-.5v4.8c-.3-.5-.5-1.1-.6-1.9-.3-1.5-1-2.1-1.9-2.3-.3-1.4-1.2-2.2-2.4-2.2s-2.1.8-2.5 2.2c-.7-.1-1.5-.3-2.1-.8v-1.1c0-.1-.1-.2-.2-.2h-1c-1.4-2-2.2-5.2-2.1-7.5.4 1.4 1.2 2.2 2.4 2.2 1.7 0 2.7-1.4 2.7-3.9 0-2.3-.9-3.7-2.5-3.7-.3 0-.7.1-.9.2 1.4-3 3.3-5 5.9-6.8V14c0 .1.1.2.2.2h.9c.1 0 .2-.1.2-.2v-2.1c.6-.4 1.3-.8 1.9-1.1.1 2.2 1 3.6 2.5 3.6 1.7 0 2.7-1.4 2.7-3.9 0-.8-.1-1.4-.3-2 .3-.2.7-.3 1.2-.5l.1.6c0 .1.1.1.1.2h.2l.9-.5v5.6c0 .1.1.2.2.2h.9c.1 0 .2-.1.2-.2V7.5c1-.1 2-.2 3.1-.3-.7.6-1.1 1.8-1.1 3.3 0 2.3 1 3.8 2.5 3.8 1.7 0 2.7-1.4 2.7-3.9 0-1.4-.3-2.5-1-3.1.7.1 1.5.1 2.2.3h-.1c-.1.1-.2.2-.1.3l.2.7c0 .1.1.1.1.2h.2l.9-.5v5.6c0 .1.1.2.2.2h.9c.1 0 .2-.1.2-.2V8.1c.7.2 1.5.4 2.2.6-.2.5-.2 1.1-.2 1.8 0 2.3 1 3.8 2.5 3.8 1.6 0 2.5-1.2 2.6-3.4l2.4 1.5v1.5c0 .1.1.2.2.2h.9c.1 0 .2-.1.2-.2v-.4c2.1 1.7 3.9 3.7 5.2 6-.2-.1-.4-.1-.6-.1-1.6 0-2.7 1.5-2.7 3.8s1 3.8 2.5 3.8c1.4 0 2.3-1 2.6-2.9 1.5 4.5 2.1 10.7-1.1 12.3zM18.3 23.3c0-1.6.5-2.6 1.2-2.6 1 0 1.2 1.6 1.2 2.6s-.2 2.6-1.2 2.6c-.8 0-1.2-1-1.2-2.6zm45.9-.1c0 1-.2 2.6-1.2 2.6-.7 0-1.2-1-1.2-2.6s.5-2.6 1.2-2.6c1.1.1 1.2 1.7 1.2 2.6z"/><path class="st0" d="M58.3 19.5h-.9l-1.5.8c-.1.1-.2.2-.1.3l.2.7c0 .1.1.1.1.2h.2l.9-.5v5.6c0 .1.1.2.2.2h.9c.1 0 .2-.1.2-.2v-6.9c.1 0 0-.2-.2-.2zm-6.1-.1c-1.6 0-2.7 1.5-2.7 3.8s1 3.8 2.5 3.8c1.7 0 2.7-1.4 2.7-3.9.1-2.3-.9-3.7-2.5-3.7zm0 6.5c-.7 0-1.2-1-1.2-2.6s.5-2.6 1.2-2.6c1 0 1.2 1.6 1.2 2.6-.1.9-.2 2.6-1.2 2.6z"/></svg>