<svg id="Capa_1" xmlns="http://www.w3.org/2000/svg" viewBox="0 0 86.3 101"><style>.st0{fill:#e62264}</style><path class="st0" d="M40.2.3c-.5-.3-1.1-.4-1.6-.1-.5.3-.9.8-.9 1.4v19l-12.3 7.9-12.3-7.9v-19c0-.6-.3-1.1-.9-1.4s-1-.2-1.5.1C4 5.1 0 12.8 0 21c0 9.7 5.5 18.2 13.5 22.5v46.3c0 6.2 5 11.2 11.2 11.2h1.5c6.2 0 11.2-5 11.2-11.2V43.5c8.1-4.3 13.5-12.8 13.5-22.5 0-8.2-4-15.9-10.7-20.7zm42.4 39H79V18.7l1.5-2.8c.3-.6.4-1.2.2-1.8l-2.5-11C77.9 1.9 76.8 1 75.6 1h-2.3c-1.2 0-2.3.9-2.6 2.1l-2.5 10.8c-.1.6-.1 1.3.2 1.8l1.5 2.9v20.7h-3.6c-2.1 0-3.7 1.7-3.7 3.7v46.9c0 6.2 5 11.2 11.2 11.2h1.5c6.2 0 11.2-5 11.2-11.2V43c-.2-2.1-1.8-3.7-3.9-3.7z"/></svg>