<svg id="Capa_1" xmlns="http://www.w3.org/2000/svg" viewBox="0 0 100 100"><style>.st0{fill:#1bb7d0}</style><g id="XMLID_2_"><g id="XMLID_3_"><path id="XMLID_9_" class="st0" d="M9.7 55.9c7.7-11 12.2-18.1 15.5-23.4C12.6 33.7.4 49.4.4 49.4l8.3 8.3c.3-.6.6-1.2 1-1.8z"/><path id="XMLID_8_" class="st0" d="M42.3 91.2l8.3 8.3s15.7-12.1 16.8-24.7C62.1 78.1 55 82.6 44 90.3c-.5.4-1.1.7-1.7.9z"/><path id="XMLID_7_" class="st0" d="M29.6 86.9c-1.4.6-2.8 1.2-4.3 1.7-3.9 1.3-7.9 2.2-12 2.8-1.7.2-3.4.4-5.2.6 0-.2 0-.4.1-.6.4-4.2 1-8.3 2-12.4.5-2 1.1-3.9 1.8-5.8.4-1.2.9-2.3 1.5-3.4l-.9-.9c-2 1.4-3.8 3.1-5.3 5.1-2.3 2.8-4 6-5.2 9.5C.8 87.2.1 91.2 0 95.1c0 .6-.1 1.1 0 1.7.1.7.4 1.4.9 1.9s1.1.9 1.7 1.2c.6.2 1.1.2 1.7.2 3.6 0 7.2-.6 10.6-1.7 6.2-1.9 12.5-5.3 16.2-10.8l-.9-.9c-.1 0-.3.1-.6.2z"/><path id="XMLID_4_" class="st0" d="M99 1c-.7-.6-1.5-1-2.4-1h-.1C85.4.2 57.9 2.3 43.3 16.9c-6.6 6.6-8.8 10.1-13.5 17.6-3.4 5.4-8 12.9-16.5 25.1-1 1.4-.8 3.2.4 4.4L36 86.4c.7.7 1.6 1 2.4 1 .7 0 1.4-.2 2-.6 12.2-8.5 19.7-13.2 25.1-16.5 7.6-4.7 11-6.9 17.6-13.5C97.7 42.1 99.8 14.6 100 3.5c0-.9-.3-1.8-1-2.5zM73.2 43.1c-4.5 4.5-11.8 4.5-16.3 0s-4.5-11.8 0-16.3 11.8-4.5 16.3 0 4.5 11.8 0 16.3z"/></g></g></svg>