<?xml version="1.0" encoding="utf-8"?>
<!-- Generator: Adobe Illustrator 19.0.0, SVG Export Plug-In . SVG Version: 6.00 Build 0)  -->
<svg version="1.1" id="Capa_1" xmlns="http://www.w3.org/2000/svg" xmlns:xlink="http://www.w3.org/1999/xlink" x="0px" y="0px"
	 viewBox="0 0 135.9 101.4" style="enable-background:new 0 0 135.9 101.4;" xml:space="preserve">
<style type="text/css">
	.st0{fill:#E74539;}
</style>
<g>
	<g>
		<path class="st0" d="M70.3,80.3c-0.6-0.2-1.3-0.3-2-0.3h-7.1v-8.1h14.5c3-2.8,6.8-4.5,10.8-5.6c-1-1.5-1.9-3.1-2.7-4.8H10.4v-51
			h84.4v12.9c3.1-1.2,6.7-1.9,10.4-1.9h0V9c0-5-4-9-9-9H9C4,0,0,4,0,9v53.9c0,5,4,9,9,9h35V80h-7.1c-3.3,0-6.1,2.7-6.1,6.1
			c0,3.3,2.7,6.1,6.1,6.1h31.4c0.1,0,0.2,0,0.3,0C68.8,87.6,69.2,83.7,70.3,80.3z"/>
		<g>
			<path class="st0" d="M135.9,97c-0.2-8.9-0.3-14.8-3.1-19.1c-3.2-5-9.2-7-17.9-8.6c0,0,0,0,0,0c-0.1,0-0.9-0.2-2.4-0.3
				c-0.5,0-0.8-1.1-0.1-1.4c6.5-3.3,10.8-11.2,10.8-19.7c0-7-1-11.7-3.2-15.1c-2.7-4.2-8.8-6.4-14.7-6.4c-5.9,0-11.9,2.2-14.7,6.4
				c-2.2,3.4-3.2,8-3.2,15.1c0,8.5,4.3,16.4,10.8,19.7c0.7,0.3,0.4,1.4-0.1,1.4c-1.5,0.2-2.3,0.3-2.4,0.3c0,0,0,0,0,0
				c-8.7,1.6-14.8,3.6-17.9,8.6c-2.8,4.4-2.9,10.2-3.1,19.1l0,1.3c0,0.8,0.3,1.6,0.8,2.1c0.6,0.6,1.3,0.9,2.1,0.9H133
				c0.8,0,1.5-0.3,2.1-0.9c0.6-0.6,0.9-1.3,0.8-2.1L135.9,97z"/>
		</g>
		<g>
			<path class="st0" d="M66,26.2c0.5-0.5,1.3-0.5,1.8,0l1.5,1.5l0.9-0.9c0.9-0.9,0.9-2.3,0-3.1l-3.1-3.1l-1.9-1.9
				c-0.9-0.9-2.3-0.9-3.1,0l-1.9,1.9L55,25.8l-8.7,8.7l-1.3-1.3c-2-2-5.3-2-7.4,0L32,38.8c-2,2-2,5.3,0,7.4l6.6,6.6c2,2,5.3,2,7.4,0
				l5.5-5.5c2-2,2-5.3,0-7.4l-1.2-1.2l7.2-7.2l2.5,2.5c0.9,0.9,2.3,0.9,3.1,0l1.1-1.1l-2.6-2.6c-0.5-0.5-0.5-1.3,0-1.8
				c0.5-0.5,1.3-0.5,1.8,0l2.6,2.6l1.6-1.6L66,28C65.5,27.5,65.5,26.7,66,26.2z M43.5,47.6l-0.8,0.8c-0.5,0.5-1.3,0.5-1.8,0
				l-4.5-4.5c-0.5-0.5-0.5-1.3,0-1.8l0.8-0.8c0.5-0.5,1.3-0.5,1.8,0l4.5,4.5C44,46.3,44,47.1,43.5,47.6z"/>
		</g>
	</g>
</g>
</svg>
