<?xml version="1.0" encoding="utf-8"?>
<!-- Generator: Adobe Illustrator 19.0.0, SVG Export Plug-In . SVG Version: 6.00 Build 0)  -->
<svg version="1.1" id="Capa_1" xmlns="http://www.w3.org/2000/svg" xmlns:xlink="http://www.w3.org/1999/xlink" x="0px" y="0px"
	 viewBox="0 0 305.8 71.9" style="enable-background:new 0 0 305.8 71.9;" xml:space="preserve">
<style type="text/css">
	.st0{fill:#FFFFFF;}
</style>
<g>
	<g>
		<path class="st0" d="M167.9,26.2c0,3.5-0.6,6.7-1.7,9.8c-1.2,3.1-2.7,5.8-4.8,8.1c-2.1,2.3-4.6,4.2-7.5,5.6
			c-2.9,1.5-6,2.1-9.6,2.1c-2.1,0-4.2-0.2-6-0.8s-3.5-1.5-5.2-2.9v23.7h-12.3V1.7h12.3v2.5c1.5-1,3.1-2.1,5-2.7s4-1,6.2-1
			c2.9,0,5.8,0.6,8.7,2.1c2.9,1.2,5.4,3.1,7.5,5.4c2.3,2.3,4,5,5.2,8.1C167.1,19.2,167.9,22.7,167.9,26.2z M155.4,26.5
			c0-2.3-0.4-4.4-1-6.2c-0.6-1.9-1.7-3.5-2.9-4.8s-2.7-2.3-4.4-3.1c-1.7-0.6-3.5-1-5.6-1c-1.2,0-2.7,0.2-4.4,0.8
			c-1.7,0.6-3.1,1.2-4.2,2.1v23.5c2.7,2.5,5.6,3.7,9,3.7c1.9,0,3.7-0.4,5.4-1c1.7-0.8,3.1-1.7,4.4-3.1c1.2-1.2,2.1-2.9,2.7-4.8
			C155,30.6,155.4,28.5,155.4,26.5z"/>
		<path id="XMLID_8_" class="st0" d="M210.6,6.9l-6.5,10.4c-1.2-1.2-2.5-2.5-4-3.3c-1.5-1-2.9-1.5-4.4-1.5c-0.8,0-1.7,0.2-2.5,0.6
			c-0.8,0.4-1.9,1-2.7,1.9c-0.8,0.8-1.5,1.9-2.1,3.3c-0.6,1.5-0.8,3.1-0.8,5.2v27.7h-12.3V1.7h12.3v5.2c1.5-2.1,3.1-3.7,4.8-4.8
			c1.9-1,3.7-1.7,6-1.7c2.1,0,4.2,0.6,6.2,1.7C206.8,3.3,208.9,4.8,210.6,6.9z"/>
		<path class="st0" d="M265.6,26.2c0,3.7-0.6,7.1-2.1,10.2c-1.5,3.1-3.1,5.8-5.6,8.1c-2.3,2.3-5.2,4.2-8.3,5.4
			c-3.1,1.2-6.7,2.1-10.2,2.1c-3.5,0-7.1-0.6-10.2-2.1c-3.1-1.2-6-3.1-8.3-5.4c-2.3-2.3-4.2-5-5.6-8.1c-1.5-3.1-2.1-6.5-2.1-10.2
			c0-3.5,0.6-6.9,2.1-10s3.3-5.8,5.6-8.3c2.3-2.3,5.2-4.2,8.3-5.4c3.1-1.2,6.5-2.1,10-2.1c3.5,0,7.1,0.6,10.2,2.1
			c3.1,1.2,6,3.1,8.3,5.4c2.3,2.3,4.2,5,5.6,8.1C265,19.2,265.6,22.7,265.6,26.2z M253.3,26.2c0-2.1-0.4-4-1-5.8
			c-0.8-1.9-1.7-3.3-2.9-4.8s-2.7-2.5-4.4-3.1c-1.7-0.8-3.5-1-5.4-1s-3.7,0.4-5.4,1c-1.7,0.8-3.1,1.9-4.4,3.1
			c-1.2,1.5-2.3,2.9-2.9,4.8c-0.8,1.9-1,3.7-1,5.8c0,2.1,0.4,4,1,5.8c0.8,1.9,1.7,3.3,2.9,4.8c1.2,1.5,2.7,2.5,4.4,3.1
			c1.7,0.8,3.5,1,5.4,1s3.7-0.4,5.4-1c1.7-0.8,3.1-1.9,4.4-3.1c1.2-1.5,2.3-2.9,2.9-4.8C253.1,30.2,253.3,28.3,253.3,26.2z"/>
	</g>
	<path id="XMLID_5_" class="st0" d="M290.4,50.8v-5h1.2c1.7,0,2.9-0.8,3.3-2.5c0.4-1.5,0.6-3.3,0.6-5.8c0-1,0-2.3,0-3.3
		c0-1.2,0.2-2.3,0.4-3.3c0.2-1,0.6-2.1,1.2-2.9c0.4-0.8,1.2-1.5,2.3-1.9l1.2-0.6l-1.2-0.6c-1-0.4-1.7-1-2.3-1.7
		c-0.6-0.8-1-1.7-1.2-2.5c-0.2-1-0.4-2.1-0.4-3.1c0-1.2,0-2.3,0-3.5c0-2.9-0.2-5-0.8-6.5c-0.6-2.1-2.3-2.5-3.3-2.5h-1.2V0h2.1
		c1.9,0,3.3,0.2,4.6,0.8c1,0.6,1.9,1.5,2.3,2.5c0.6,1,0.8,2.3,1,3.5c0.2,1.5,0.2,2.7,0.2,4.2v4.4c0,1.5,0.2,2.7,0.4,4
		c0.4,1.2,1,2.3,1.9,2.9c0.8,0.6,1.9,1,3.1,1v4c-1.2,0-2.3,0.4-3.1,1c-0.8,0.8-1.5,1.7-1.7,2.9c-0.2,1.2-0.4,2.5-0.4,4
		c0,1.5,0,2.9,0,4.4c0,1.5-0.2,2.9-0.2,4.2c-0.2,1.2-0.6,2.5-1,3.5c-0.6,1-1.5,1.9-2.5,2.3c-1,0.6-2.7,0.8-4.6,0.8h-1.9V50.8z"/>
	<path id="XMLID_4_" class="st0" d="M286.8,50.8v-5h-1.2c-1.7,0-2.9-0.8-3.3-2.5c-0.4-1.5-0.6-3.3-0.6-5.8c0-1,0-2.3,0-3.3
		c0-1.2-0.2-2.3-0.4-3.3c-0.2-1-0.6-2.1-1.2-2.9c-0.4-0.8-1.2-1.5-2.3-1.9l-1.2-0.6l1.2-0.6c1-0.4,1.7-1,2.3-1.7
		c0.6-0.8,1-1.7,1.2-2.5c0.2-1,0.4-2.1,0.4-3.1c0-1.2,0-2.3,0-3.5c0-2.9,0.2-5,0.8-6.5c0.6-2.1,2.3-2.5,3.3-2.5h1.2V0h-2.1
		c-1.9,0-3.3,0.2-4.6,0.8c-1,0.6-1.9,1.5-2.3,2.5c-0.6,1-0.8,2.3-1,3.5c-0.2,1.5-0.2,2.7-0.2,4.2v4.4c0,1.5-0.2,2.7-0.4,4
		c-0.4,1.2-1,2.3-1.9,2.9c-0.8,0.6-1.9,1-3.1,1v4c1.2,0,2.3,0.4,3.1,1c0.8,0.8,1.5,1.7,1.7,2.9s0.4,2.5,0.4,4c0,1.5,0,2.9,0,4.4
		c0,1.5,0.2,2.9,0.2,4.2c0.2,1.2,0.6,2.5,1,3.5c0.6,1,1.5,1.9,2.5,2.3c1,0.6,2.7,0.8,4.6,0.8h1.9V50.8z"/>
	<path id="XMLID_3_" class="st0" d="M40.8,39.6c0,2.7-0.6,5-1.9,7.1c-1.2,2.1-2.9,3.7-4.8,5.2c-1.9,1.5-4.2,2.5-6.7,3.1
		c-2.5,0.6-4.8,1-7.3,1c-4,0-7.7-0.8-11.2-2.3c-3.3-1.5-6.5-4-9-7.3l7.9-8.1c1.7,2.1,3.3,3.5,5.4,4.8c2.1,1,4.4,1.7,6.7,1.7
		c2.1,0,3.7-0.4,5.2-1.2c1.5-0.8,2.1-1.9,2.1-3.5c0-1.7-1-2.9-2.9-4c-1.9-1-4.8-2.1-8.3-3.1c-2.1-0.6-4.2-1.5-6-2.3
		c-1.9-1-3.7-2.1-5.2-3.5c-1.5-1.5-2.7-2.9-3.7-4.8c-0.6-1.5-1-3.5-1-5.8c0-2.5,0.6-4.8,1.9-6.9c1.2-2.1,2.7-3.7,4.8-5.2
		c1.9-1.5,4.2-2.5,6.7-3.1C15.6,0.4,18.1,0,20.6,0c8.1,0,14.8,3.1,20,9.2l-7.9,7.9c-1.5-1.9-3.3-3.3-5.2-4.6c-1.9-1-4.2-1.7-6.5-1.7
		c-0.8,0-1.7,0.2-2.5,0.4c-1,0.4-1.9,0.6-2.7,1c-0.8,0.4-1.5,0.8-1.9,1.5c-0.4,0.8-0.6,1.5-0.6,2.3c0,1.5,0.8,2.7,2.7,3.7
		c1.9,1,4.6,2.1,8.1,3.1c2.3,0.6,4.4,1.5,6.5,2.5c2.1,1,3.7,2.3,5.4,3.5c1.5,1.5,2.7,2.9,3.5,4.8C40.4,35.4,40.8,37.5,40.8,39.6z"/>
	<polygon id="XMLID_2_" class="st0" points="91,25.4 83.7,1.2 72.7,1.2 63.5,31.9 54.4,1.2 41.5,1.2 57.9,50.4 68.5,50.4 78.3,21 
		85.8,43.5 	"/>
	<polygon id="XMLID_1_" class="st0" points="102.3,1.2 99.1,11.2 99.4,11.2 88.1,50.4 88.1,50.4 98.7,50.4 115.2,1.2 	"/>
</g>
</svg>
