<svg id="Capa_1" xmlns="http://www.w3.org/2000/svg" viewBox="0 0 305.8 71.9"><style>.st0{fill:#fff}</style><path class="st0" d="M167.9 26.2c0 3.5-.6 6.7-1.7 9.8-1.2 3.1-2.7 5.8-4.8 8.1-2.1 2.3-4.6 4.2-7.5 5.6-2.9 1.5-6 2.1-9.6 2.1-2.1 0-4.2-.2-6-.8s-3.5-1.5-5.2-2.9v23.7h-12.3V1.7h12.3v2.5c1.5-1 3.1-2.1 5-2.7s4-1 6.2-1c2.9 0 5.8.6 8.7 2.1 2.9 1.2 5.4 3.1 7.5 5.4 2.3 2.3 4 5 5.2 8.1 1.4 3.1 2.2 6.6 2.2 10.1zm-12.5.3c0-2.3-.4-4.4-1-6.2-.6-1.9-1.7-3.5-2.9-4.8s-2.7-2.3-4.4-3.1c-1.7-.6-3.5-1-5.6-1-1.2 0-2.7.2-4.4.8-1.7.6-3.1 1.2-4.2 2.1v23.5c2.7 2.5 5.6 3.7 9 3.7 1.9 0 3.7-.4 5.4-1 1.7-.8 3.1-1.7 4.4-3.1 1.2-1.2 2.1-2.9 2.7-4.8.6-2 1-4.1 1-6.1z"/><path id="XMLID_8_" class="st0" d="M210.6 6.9l-6.5 10.4c-1.2-1.2-2.5-2.5-4-3.3-1.5-1-2.9-1.5-4.4-1.5-.8 0-1.7.2-2.5.6-.8.4-1.9 1-2.7 1.9-.8.8-1.5 1.9-2.1 3.3-.6 1.5-.8 3.1-.8 5.2v27.7h-12.3V1.7h12.3v5.2c1.5-2.1 3.1-3.7 4.8-4.8 1.9-1 3.7-1.7 6-1.7 2.1 0 4.2.6 6.2 1.7 2.2 1.2 4.3 2.7 6 4.8z"/><path class="st0" d="M265.6 26.2c0 3.7-.6 7.1-2.1 10.2-1.5 3.1-3.1 5.8-5.6 8.1-2.3 2.3-5.2 4.2-8.3 5.4-3.1 1.2-6.7 2.1-10.2 2.1-3.5 0-7.1-.6-10.2-2.1-3.1-1.2-6-3.1-8.3-5.4-2.3-2.3-4.2-5-5.6-8.1-1.5-3.1-2.1-6.5-2.1-10.2 0-3.5.6-6.9 2.1-10s3.3-5.8 5.6-8.3c2.3-2.3 5.2-4.2 8.3-5.4 3.1-1.2 6.5-2.1 10-2.1s7.1.6 10.2 2.1c3.1 1.2 6 3.1 8.3 5.4 2.3 2.3 4.2 5 5.6 8.1 1.7 3.2 2.3 6.7 2.3 10.2zm-12.3 0c0-2.1-.4-4-1-5.8-.8-1.9-1.7-3.3-2.9-4.8s-2.7-2.5-4.4-3.1c-1.7-.8-3.5-1-5.4-1s-3.7.4-5.4 1c-1.7.8-3.1 1.9-4.4 3.1-1.2 1.5-2.3 2.9-2.9 4.8-.8 1.9-1 3.7-1 5.8 0 2.1.4 4 1 5.8.8 1.9 1.7 3.3 2.9 4.8s2.7 2.5 4.4 3.1c1.7.8 3.5 1 5.4 1s3.7-.4 5.4-1c1.7-.8 3.1-1.9 4.4-3.1 1.2-1.5 2.3-2.9 2.9-4.8.8-1.8 1-3.7 1-5.8z"/><path id="XMLID_5_" class="st0" d="M290.4 50.8v-5h1.2c1.7 0 2.9-.8 3.3-2.5.4-1.5.6-3.3.6-5.8v-3.3c0-1.2.2-2.3.4-3.3s.6-2.1 1.2-2.9c.4-.8 1.2-1.5 2.3-1.9l1.2-.6-1.2-.6c-1-.4-1.7-1-2.3-1.7-.6-.8-1-1.7-1.2-2.5-.2-1-.4-2.1-.4-3.1v-3.5c0-2.9-.2-5-.8-6.5-.6-2.1-2.3-2.5-3.3-2.5h-1.2V0h2.1c1.9 0 3.3.2 4.6.8 1 .6 1.9 1.5 2.3 2.5.6 1 .8 2.3 1 3.5.2 1.5.2 2.7.2 4.2v4.4c0 1.5.2 2.7.4 4 .4 1.2 1 2.3 1.9 2.9.8.6 1.9 1 3.1 1v4c-1.2 0-2.3.4-3.1 1-.8.8-1.5 1.7-1.7 2.9-.2 1.2-.4 2.5-.4 4v4.4c0 1.5-.2 2.9-.2 4.2-.2 1.2-.6 2.5-1 3.5-.6 1-1.5 1.9-2.5 2.3-1 .6-2.7.8-4.6.8h-1.9v.4z"/><path id="XMLID_4_" class="st0" d="M286.8 50.8v-5h-1.2c-1.7 0-2.9-.8-3.3-2.5-.4-1.5-.6-3.3-.6-5.8v-3.3c0-1.2-.2-2.3-.4-3.3s-.6-2.1-1.2-2.9c-.4-.8-1.2-1.5-2.3-1.9l-1.2-.6 1.2-.6c1-.4 1.7-1 2.3-1.7.6-.8 1-1.7 1.2-2.5.2-1 .4-2.1.4-3.1v-3.5c0-2.9.2-5 .8-6.5.6-2.1 2.3-2.5 3.3-2.5h1.2V0h-2.1c-1.9 0-3.3.2-4.6.8-1 .6-1.9 1.5-2.3 2.5-.6 1-.8 2.3-1 3.5-.2 1.5-.2 2.7-.2 4.2v4.4c0 1.5-.2 2.7-.4 4-.4 1.2-1 2.3-1.9 2.9-.8.6-1.9 1-3.1 1v4c1.2 0 2.3.4 3.1 1 .8.8 1.5 1.7 1.7 2.9s.4 2.5.4 4v4.4c0 1.5.2 2.9.2 4.2.2 1.2.6 2.5 1 3.5.6 1 1.5 1.9 2.5 2.3 1 .6 2.7.8 4.6.8h1.9v.4z"/><path id="XMLID_3_" class="st0" d="M40.8 39.6c0 2.7-.6 5-1.9 7.1-1.2 2.1-2.9 3.7-4.8 5.2s-4.2 2.5-6.7 3.1c-2.5.6-4.8 1-7.3 1-4 0-7.7-.8-11.2-2.3-3.3-1.5-6.5-4-9-7.3l7.9-8.1c1.7 2.1 3.3 3.5 5.4 4.8 2.1 1 4.4 1.7 6.7 1.7 2.1 0 3.7-.4 5.2-1.2 1.5-.8 2.1-1.9 2.1-3.5 0-1.7-1-2.9-2.9-4-1.9-1-4.8-2.1-8.3-3.1-2.1-.6-4.2-1.5-6-2.3-1.9-1-3.7-2.1-5.2-3.5-1.5-1.5-2.7-2.9-3.7-4.8-.6-1.5-1-3.5-1-5.8 0-2.5.6-4.8 1.9-6.9C3.2 7.6 4.7 6 6.8 4.5 8.7 3 11 2 13.5 1.4 15.6.4 18.1 0 20.6 0c8.1 0 14.8 3.1 20 9.2l-7.9 7.9c-1.5-1.9-3.3-3.3-5.2-4.6-1.9-1-4.2-1.7-6.5-1.7-.8 0-1.7.2-2.5.4-1 .4-1.9.6-2.7 1-.8.4-1.5.8-1.9 1.5-.4.8-.6 1.5-.6 2.3 0 1.5.8 2.7 2.7 3.7 1.9 1 4.6 2.1 8.1 3.1 2.3.6 4.4 1.5 6.5 2.5 2.1 1 3.7 2.3 5.4 3.5 1.5 1.5 2.7 2.9 3.5 4.8.9 1.8 1.3 3.9 1.3 6z"/><path id="XMLID_2_" class="st0" d="M91 25.4L83.7 1.2h-11l-9.2 30.7-9.1-30.7H41.5l16.4 49.2h10.6L78.3 21l7.5 22.5z"/><path id="XMLID_1_" class="st0" d="M102.3 1.2l-3.2 10h.3L88.1 50.4h10.6l16.5-49.2z"/></svg>