<?xml version="1.0" encoding="utf-8"?>
<!-- Generator: Adobe Illustrator 19.0.0, SVG Export Plug-In . SVG Version: 6.00 Build 0)  -->
<svg version="1.1" id="Capa_1" xmlns="http://www.w3.org/2000/svg" xmlns:xlink="http://www.w3.org/1999/xlink" x="0px" y="0px"
	 viewBox="0 0 85.5 100" style="enable-background:new 0 0 85.5 100;" xml:space="preserve">
<style type="text/css">
	.st0{fill:#E62264;}
</style>
<g>
	<g>
		<path id="XMLID_2_" class="st0" d="M39.8,0.3c-0.5-0.3-1.1-0.4-1.6-0.1c-0.5,0.3-0.8,0.8-0.8,1.4v18.8l-12.2,7.8L13,20.4V1.6
			c0-0.6-0.3-1.1-0.8-1.4S11.1,0,10.6,0.3C4,5,0,12.7,0,20.8c0,9.6,5.4,18,13.4,22.3v45.9c0,6.1,5,11.1,11.1,11.1h1.5
			C32,100,37,95,37,88.9V43.1c8-4.2,13.4-12.6,13.4-22.3C50.4,12.7,46.5,5,39.8,0.3z"/>
		<path id="XMLID_1_" class="st0" d="M81.8,38.9h-3.6V18.5l1.5-2.7c0.3-0.6,0.4-1.2,0.2-1.8L77.4,3.1c-0.3-1.2-1.3-2-2.6-2h-2.3
			c-1.2,0-2.3,0.8-2.6,2l-2.5,10.7c-0.1,0.6-0.1,1.2,0.2,1.8l1.5,2.9v20.5h-3.6c-2,0-3.7,1.7-3.7,3.7v46.4c0,6.1,5,11.1,11.1,11.1
			h1.5c6.1,0,11.1-5,11.1-11.1V42.6C85.5,40.5,83.8,38.9,81.8,38.9z"/>
	</g>
</g>
</svg>
