<?xml version="1.0" encoding="utf-8"?>
<!-- Generator: Adobe Illustrator 19.0.0, SVG Export Plug-In . SVG Version: 6.00 Build 0)  -->
<svg version="1.1" id="Capa_1" xmlns="http://www.w3.org/2000/svg" xmlns:xlink="http://www.w3.org/1999/xlink" x="0px" y="0px"
	 viewBox="0 0 86.9 100" style="enable-background:new 0 0 86.9 100;" xml:space="preserve">
<style type="text/css">
	.st0{fill:#009587;}
</style>
<g id="XMLID_2_">
	<g id="XMLID_3_">
		<path id="XMLID_34_" class="st0" d="M49,37.8h-0.9c0,0-0.1,0-0.1,0l-1.8,0.9c-0.1,0.1-0.2,0.2-0.1,0.3l0.2,0.8
			c0,0.1,0.1,0.2,0.2,0.2c0.1,0,0.2,0,0.3,0l1-0.5v6.6c0,0.2,0.1,0.3,0.3,0.3H49c0.2,0,0.3-0.1,0.3-0.3V38
			C49.3,37.9,49.2,37.8,49,37.8z"/>
		<path id="XMLID_31_" class="st0" d="M48.3,22.7c-1.9,0-3.1,1.7-3.1,4.5c0,2.7,1.2,4.4,3,4.4c2,0,3.1-1.7,3.1-4.6
			C51.2,24.3,50.1,22.7,48.3,22.7z M48.2,30.2c-0.8,0-1.3-1.2-1.3-3c0-1.9,0.5-3.1,1.4-3.1c1.2,0,1.3,1.9,1.3,3
			C49.6,28.3,49.4,30.2,48.2,30.2z"/>
		<path id="XMLID_28_" class="st0" d="M54.7,37.6c-1.9,0-3.1,1.7-3.1,4.5c0,2.7,1.2,4.4,3,4.4c2,0,3.1-1.7,3.1-4.6
			C57.6,39.3,56.5,37.6,54.7,37.6z M54.6,45.1c-0.8,0-1.4-1.2-1.4-3c0-1.9,0.5-3.1,1.4-3.1c1.2,0,1.4,1.9,1.4,3
			C55.9,43.2,55.8,45.1,54.6,45.1z"/>
		<path id="XMLID_25_" class="st0" d="M41.9,37.6c-1.9,0-3.1,1.7-3.1,4.5c0,2.7,1.2,4.4,3,4.4c2,0,3.1-1.7,3.1-4.6
			C44.9,39.3,43.8,37.6,41.9,37.6z M41.8,45.1c-0.8,0-1.4-1.2-1.4-3c0-1.9,0.5-3.1,1.4-3.1c1.2,0,1.4,1.9,1.4,3
			C43.2,43.2,43,45.1,41.8,45.1z"/>
		<path id="XMLID_24_" class="st0" d="M29.9,22.8h-0.9c0,0-0.1,0-0.1,0L27,23.8c-0.1,0.1-0.2,0.2-0.1,0.3l0.2,0.8
			c0,0.1,0.1,0.2,0.2,0.2c0.1,0,0.2,0,0.3,0l1-0.5v6.6c0,0.2,0.1,0.3,0.3,0.3h1.1c0.2,0,0.3-0.1,0.3-0.3v-8.1
			C30.2,23,30,22.8,29.9,22.8z"/>
		<path id="XMLID_23_" class="st0" d="M61.8,37.8h-0.9c0,0-0.1,0-0.1,0l-1.8,0.9c-0.1,0.1-0.2,0.2-0.1,0.3l0.2,0.8
			c0,0.1,0.1,0.2,0.2,0.2c0.1,0,0.2,0,0.3,0l1-0.5v6.6c0,0.2,0.1,0.3,0.3,0.3h1.1c0.2,0,0.3-0.1,0.3-0.3V38
			C62.1,37.9,61.9,37.8,61.8,37.8z"/>
		<path id="XMLID_22_" class="st0" d="M36.3,22.8h-0.9c0,0-0.1,0-0.1,0l-1.8,0.9c-0.1,0.1-0.2,0.2-0.1,0.3l0.2,0.8
			c0,0.1,0.1,0.2,0.2,0.2c0.1,0,0.2,0,0.3,0l1-0.5v6.6c0,0.2,0.1,0.3,0.3,0.3h1.1c0.2,0,0.3-0.1,0.3-0.3v-8.1
			C36.5,23,36.4,22.8,36.3,22.8z"/>
		<path id="XMLID_21_" class="st0" d="M39.9,25c0,0.1,0.1,0.2,0.2,0.2c0.1,0,0.2,0,0.3,0l1-0.5v6.6c0,0.2,0.1,0.3,0.3,0.3h1.1
			c0.2,0,0.3-0.1,0.3-0.3v-8.1c0-0.2-0.1-0.3-0.3-0.3h-0.9c0,0-0.1,0-0.1,0l-1.8,0.9c-0.1,0.1-0.2,0.2-0.1,0.3L39.9,25z"/>
		<path id="XMLID_18_" class="st0" d="M54.7,22.7c-1.9,0-3.1,1.7-3.1,4.5c0,2.7,1.2,4.4,3,4.4c2,0,3.1-1.7,3.1-4.6
			C57.6,24.3,56.5,22.7,54.7,22.7z M54.6,30.2c-0.8,0-1.4-1.2-1.4-3c0-1.9,0.5-3.1,1.4-3.1c1.2,0,1.4,1.9,1.4,3
			C55.9,28.3,55.8,30.2,54.6,30.2z"/>
		<path id="XMLID_17_" class="st0" d="M68.1,37.8h-0.9c0,0-0.1,0-0.1,0l-1.8,0.9c-0.1,0.1-0.2,0.2-0.1,0.3l0.2,0.8
			c0,0.1,0.1,0.2,0.2,0.2c0.1,0,0.2,0,0.3,0l1-0.5v6.6c0,0.2,0.1,0.3,0.3,0.3h1.1c0.2,0,0.3-0.1,0.3-0.3V38
			C68.4,37.9,68.3,37.8,68.1,37.8z"/>
		<path id="XMLID_8_" class="st0" d="M79.2,14.4C71.8,5.1,61,0,48.8,0c-8.7,0-17.4,2.7-24.5,7.7c-7.6,5.3-13,12.6-15.5,21.3
			c-1,3.4-1.5,6.2-1.9,8.7c-0.9,5.2-1.6,8.9-5.7,15c-1.1,1.6-1.4,3.1-1,4.6c0.6,2.2,2.8,3.2,4.5,4c0.6,0.3,1.5,0.7,1.8,0.9
			c1,1.3,0.9,4.9,0.9,8.1c-0.1,4.5-0.2,9.2,2,12.6c3.2,4.7,8,4.8,12,4.8c4.6,0,6.7,0.1,7.2,5.2c0,0.1,0,0.7,0,1.2
			c0.1,3.4,0.2,3.8,0.3,4.3c0.3,1,1.3,1.6,2.3,1.6h43.2c0.8,0,1.6-0.4,2-1.1c0.4-0.7,0.5-1.6,0.1-2.3c-5.4-11.3-1-22.8,3.7-35.1
			c2.9-7.4,5.8-15.1,6.5-22.9C87.5,29.5,85.1,21.6,79.2,14.4z M59.7,10.8c0.9,0.3,1.7,0.7,2.6,1.1c0,0.1,0,0.2,0,0.3
			c0,1.1-0.2,3.1-1.4,3.1c-0.8,0-1.3-1.2-1.3-3C59.6,11.7,59.7,11.2,59.7,10.8z M48.2,9.2c1.2,0,1.3,1.9,1.3,3
			c0,1.1-0.2,3.1-1.4,3.1c-0.8,0-1.3-1.2-1.3-3C46.8,10.4,47.4,9.2,48.2,9.2z M34.1,11.6c0.1,0,0.1-0.1,0.2-0.1
			c0.7-0.4,1.5-0.8,2.3-1.1c0.2,0.6,0.2,1.3,0.2,1.8c0,1.1-0.2,3.1-1.4,3.1c-0.8,0-1.4-1.2-1.4-3C34.1,12.1,34.1,11.8,34.1,11.6z
			 M28,40.3c0.2-0.8,0.6-1.2,1.1-1.2c0.6,0,0.9,0.5,1.1,1.1C29.5,40.1,28.7,40.2,28,40.3z M75,42.5c-0.1,0-0.2,0.1-0.2,0.1V38
			c0-0.2-0.1-0.3-0.3-0.3h-0.9c0,0-0.1,0-0.1,0l-1.8,0.9c-0.1,0.1-0.2,0.2-0.1,0.3l0.2,0.8c0,0.1,0.1,0.2,0.2,0.2c0.1,0,0.2,0,0.3,0
			l1-0.5v3.2c-0.5,0-1,0.2-1.2,0.9c-0.4,1.6-1.1,2.9-2.2,4.1c-2.4,2.3-10.2,1.8-10.2,1.8s-0.5,0.4-0.2,4l-0.5,0.2
			c-0.1,0.1-0.2,0.2-0.1,0.3l0.2,0.8c0,0.1,0.1,0.2,0.2,0.2c0.1,0,0.2,0,0.3,0l0.1-0.1c0,0.1,0,0.2,0,0.3c0.3,2.4-1.6,3.2-3.9,2.3
			V53c0-0.2-0.1-0.3-0.3-0.3h-0.9c0,0-0.1,0-0.1,0l-1.8,0.9c-0.1,0.1-0.2,0.2-0.1,0.3l0.2,0.8c0,0.1,0.1,0.2,0.2,0.2
			c0.1,0,0.2,0,0.3,0l1-0.5v2.2c-2.4-1.6-5-4.8-6-9.4c-0.5-2.4-5,1.8-7.8,0.9c-2-0.6-3.4-0.9-4.4-1.8h0.4c0.2,0,0.3-0.1,0.3-0.3
			v-8.1c0-0.2-0.1-0.3-0.3-0.3h-0.9c0,0-0.1,0-0.1,0l-1.8,0.9c-0.1,0.1-0.2,0.2-0.1,0.3l0.2,0.8c0,0.1,0.1,0.2,0.2,0.2
			c0.1,0,0.2,0,0.3,0l1-0.5v5.6c-0.3-0.6-0.5-1.3-0.7-2.2c-0.4-1.7-1.2-2.4-2.2-2.7c-0.4-1.7-1.4-2.6-2.8-2.6c-1.4,0-2.4,1-2.9,2.6
			c-0.9-0.1-1.7-0.4-2.5-0.9v-1.3c0-0.2-0.1-0.3-0.3-0.3h-0.9c0,0-0.1,0-0.1,0l-0.1,0c-1.6-2.3-2.6-6.1-2.5-8.8
			c0.4,1.6,1.4,2.6,2.7,2.6c2,0,3.1-1.7,3.1-4.6c0-2.7-1.1-4.4-3-4.4c-0.4,0-0.8,0.1-1.1,0.2c1.6-3.5,3.9-5.8,6.9-8v1.3
			c0,0.2,0.1,0.3,0.3,0.3h1.1c0.2,0,0.3-0.1,0.3-0.3v-2.4c0.7-0.4,1.5-0.9,2.3-1.3c0.1,2.6,1.2,4.2,3,4.2c2,0,3.1-1.7,3.1-4.6
			c0-0.9-0.1-1.7-0.3-2.3c0.5-0.2,1-0.3,1.6-0.5l0.2,0.7c0,0.1,0.1,0.2,0.2,0.2c0.1,0,0.2,0,0.3,0l1-0.5v6.6c0,0.2,0.1,0.3,0.3,0.3
			h1.1c0.2,0,0.3-0.1,0.3-0.3V8.7c1.2-0.2,2.4-0.3,3.6-0.3c-0.9,0.7-1.3,2.1-1.3,3.9c0,2.7,1.2,4.4,3,4.4c2,0,3.1-1.7,3.1-4.6
			c0-1.7-0.4-2.9-1.1-3.6c0.8,0.1,1.7,0.2,2.5,0.3l-0.1,0.1c-0.1,0.1-0.2,0.2-0.1,0.3l0.2,0.8c0,0.1,0.1,0.2,0.2,0.2
			c0.1,0,0.2,0,0.3,0l1-0.5v6.6c0,0.2,0.1,0.3,0.3,0.3h1.1c0.2,0,0.3-0.1,0.3-0.3V9.5c0.9,0.2,1.7,0.5,2.5,0.7
			c-0.2,0.6-0.3,1.3-0.3,2.1c0,2.7,1.2,4.4,3,4.4c1.8,0,2.9-1.4,3.1-4c1,0.5,1.9,1.1,2.8,1.8v1.8c0,0.2,0.1,0.3,0.3,0.3h1.1
			c0.2,0,0.3-0.1,0.3-0.3v-0.5c2.4,2,4.5,4.3,6.1,7c-0.2-0.1-0.5-0.1-0.7-0.1c-1.9,0-3.1,1.7-3.1,4.5c0,2.7,1.2,4.4,3,4.4
			c1.7,0,2.7-1.2,3-3.3C78.1,33.5,78.7,40.6,75,42.5z M21.3,27.2c0-1.9,0.5-3.1,1.4-3.1c1.2,0,1.4,1.9,1.4,3c0,1.2-0.2,3.1-1.4,3.1
			C21.9,30.2,21.3,29.1,21.3,27.2z M75.1,27.1c0,1.2-0.2,3.1-1.4,3.1c-0.8,0-1.4-1.2-1.4-3c0-1.9,0.5-3.1,1.4-3.1
			C74.9,24.1,75.1,26,75.1,27.1z"/>
		<path id="XMLID_7_" class="st0" d="M68.1,22.8h-0.9c0,0-0.1,0-0.1,0l-1.8,0.9c-0.1,0.1-0.2,0.2-0.1,0.3l0.2,0.8
			c0,0.1,0.1,0.2,0.2,0.2c0.1,0,0.2,0,0.3,0l1-0.5v6.6c0,0.2,0.1,0.3,0.3,0.3h1.1c0.2,0,0.3-0.1,0.3-0.3v-8.1
			C68.4,23,68.3,22.8,68.1,22.8z"/>
		<path id="XMLID_4_" class="st0" d="M61,22.7c-1.9,0-3.1,1.7-3.1,4.5c0,2.7,1.2,4.4,3,4.4c2,0,3.1-1.7,3.1-4.6
			C64,24.3,62.9,22.7,61,22.7z M61,30.2c-0.8,0-1.3-1.2-1.3-3c0-1.9,0.5-3.1,1.4-3.1c1.2,0,1.3,1.9,1.3,3
			C62.3,28.3,62.1,30.2,61,30.2z"/>
	</g>
</g>
</svg>
