<?xml version="1.0" encoding="utf-8"?>
<!-- Generator: Adobe Illustrator 19.0.0, SVG Export Plug-In . SVG Version: 6.00 Build 0)  -->
<svg version="1.1" id="Capa_1" xmlns="http://www.w3.org/2000/svg" xmlns:xlink="http://www.w3.org/1999/xlink" x="0px" y="0px"
	 viewBox="0 0 121 100" style="enable-background:new 0 0 121 100;" xml:space="preserve">
<style type="text/css">
	.st0{fill:#8BBF4C;}
</style>
<g id="XMLID_2_">
	<g id="XMLID_3_">
		<circle id="XMLID_10_" class="st0" cx="28.6" cy="43.1" r="6.1"/>
		<path id="XMLID_9_" class="st0" d="M86,38.2H45.1c-2.7,0-5,2.2-5,5c0,2.7,2.2,5,5,5H86c2.8,0,5-2.2,5-5C91,40.4,88.7,38.2,86,38.2
			z"/>
		<circle id="XMLID_8_" class="st0" cx="28.6" cy="63.1" r="6.1"/>
		<path id="XMLID_7_" class="st0" d="M86,58.1H45.1c-2.7,0-5,2.2-5,5s2.2,5,5,5H86c2.8,0,5-2.2,5-5C91,60.3,88.7,58.1,86,58.1z"/>
		<path id="XMLID_6_" class="st0" d="M83.8,84.8c-0.4,0.4-0.7,1-0.8,1.6l-1.7,10.1c-0.2,0.9,0.1,1.9,0.8,2.6
			c0.6,0.6,1.3,0.9,2.1,0.9c0.2,0,0.3,0,0.5,0l10.1-1.7c0.6-0.1,1.2-0.4,1.6-0.8l15.2-15.2L99,69.7L83.8,84.8z"/>
		<path id="XMLID_5_" class="st0" d="M120.2,69.4l-8.4-8.4c-0.6-0.6-1.3-0.9-2.1-0.9c-0.8,0-1.5,0.3-2.1,0.9l-5.7,5.7l12.6,12.6
			l5.7-5.7c0.6-0.6,0.9-1.3,0.9-2.1C121,70.7,120.7,70,120.2,69.4z"/>
		<path id="XMLID_4_" class="st0" d="M6.6,25.6h95.3v34.1l2.2-2.2c1.2-1.2,2.8-2,4.5-2.2V3.3c0-1.8-1.5-3.3-3.3-3.3H3.3
			C1.5,0,0,1.5,0,3.3v82.8c0,1.8,1.5,3.3,3.3,3.3h74.1l0.7-3.8c0.2-1,0.5-2,1.1-2.8H6.6V25.6z"/>
	</g>
</g>
</svg>
