<?xml version="1.0" encoding="utf-8"?>
<!-- Generator: Adobe Illustrator 19.0.0, SVG Export Plug-In . SVG Version: 6.00 Build 0)  -->
<svg version="1.1" id="Capa_1" xmlns="http://www.w3.org/2000/svg" xmlns:xlink="http://www.w3.org/1999/xlink" x="0px" y="0px"
	 viewBox="0 0 100 100" style="enable-background:new 0 0 100 100;" xml:space="preserve">
<style type="text/css">
	.st0{fill:#1BB7D0;}
</style>
<g id="XMLID_2_">
	<g id="XMLID_3_">
		<path id="XMLID_9_" class="st0" d="M9.7,55.9c7.7-11,12.2-18.1,15.5-23.4C12.6,33.7,0.4,49.4,0.4,49.4l8.3,8.3
			C9,57.1,9.3,56.5,9.7,55.9z"/>
		<path id="XMLID_8_" class="st0" d="M42.3,91.2l8.3,8.3c0,0,15.7-12.1,16.8-24.7c-5.3,3.3-12.4,7.8-23.4,15.5
			C43.5,90.7,42.9,91,42.3,91.2z"/>
		<path id="XMLID_7_" class="st0" d="M29.6,86.9c-1.4,0.6-2.8,1.2-4.3,1.7c-3.9,1.3-7.9,2.2-12,2.8c-1.7,0.2-3.4,0.4-5.2,0.6
			c0-0.2,0-0.4,0.1-0.6c0.4-4.2,1-8.3,2-12.4c0.5-2,1.1-3.9,1.8-5.8c0.4-1.2,0.9-2.3,1.5-3.4l-0.9-0.9c-2,1.4-3.8,3.1-5.3,5.1
			C5,76.8,3.3,80,2.1,83.5c-1.3,3.7-2,7.7-2.1,11.6c0,0.6-0.1,1.1,0,1.7c0.1,0.7,0.4,1.4,0.9,1.9c0.5,0.5,1.1,0.9,1.7,1.2
			c0.6,0.2,1.1,0.2,1.7,0.2c3.6,0,7.2-0.6,10.6-1.7c6.2-1.9,12.5-5.3,16.2-10.8l-0.9-0.9C30.1,86.7,29.9,86.8,29.6,86.9z"/>
		<path id="XMLID_4_" class="st0" d="M99,1C99,1,99,1,99,1c-0.7-0.6-1.5-1-2.4-1c0,0,0,0-0.1,0C85.4,0.2,57.9,2.3,43.3,16.9
			c-6.6,6.6-8.8,10.1-13.5,17.6c-3.4,5.4-8,12.9-16.5,25.1c-1,1.4-0.8,3.2,0.4,4.4L36,86.4c0.7,0.7,1.6,1,2.4,1c0.7,0,1.4-0.2,2-0.6
			c12.2-8.5,19.7-13.2,25.1-16.5c7.6-4.7,11-6.9,17.6-13.5C97.7,42.1,99.8,14.6,100,3.5C100,2.6,99.7,1.7,99,1z M73.2,43.1
			c-4.5,4.5-11.8,4.5-16.3,0c-4.5-4.5-4.5-11.8,0-16.3c4.5-4.5,11.8-4.5,16.3,0C77.7,31.3,77.7,38.6,73.2,43.1z"/>
	</g>
</g>
</svg>
