<?xml version="1.0" encoding="utf-8"?>
<!-- Generator: Adobe Illustrator 19.0.0, SVG Export Plug-In . SVG Version: 6.00 Build 0)  -->
<svg version="1.1" id="Capa_1" xmlns="http://www.w3.org/2000/svg" xmlns:xlink="http://www.w3.org/1999/xlink" x="0px" y="0px"
	 viewBox="0 0 134.1 100" style="enable-background:new 0 0 134.1 100;" xml:space="preserve">
<style type="text/css">
	.st0{fill:#E74539;}
</style>
<g id="XMLID_6_">
	<g id="XMLID_7_">
		<path id="XMLID_4_" class="st0" d="M69.4,79.2c-0.6-0.2-1.3-0.3-2-0.3h-7v-8h14.3c3-2.7,6.7-4.4,10.6-5.6c-1-1.5-1.9-3-2.6-4.7
			H10.3V10.3h83.3V23c3.1-1.2,6.6-1.9,10.3-1.9h0V8.9c0-4.9-4-8.9-8.9-8.9H8.9C4,0,0,4,0,8.9V62c0,4.9,4,8.9,8.9,8.9h34.5v8h-7
			c-3.3,0-6,2.7-6,6c0,3.3,2.7,6,6,6h31c0.1,0,0.2,0,0.3,0C67.9,86.4,68.3,82.6,69.4,79.2z"/>
		<g id="XMLID_12_">
			<path id="XMLID_3_" class="st0" d="M134.1,95.7c-0.2-8.8-0.3-14.6-3-18.9c-3.1-4.9-9.1-6.9-17.7-8.5c0,0,0,0,0,0
				c-0.1,0-0.9-0.2-2.4-0.3c-0.5,0-0.8-1.1-0.1-1.4c6.4-3.3,10.6-11,10.6-19.4c0-7-1-11.5-3.1-14.9c-2.7-4.1-8.6-6.3-14.5-6.3
				c-5.8,0-11.8,2.1-14.5,6.3c-2.2,3.3-3.1,7.9-3.1,14.9c0,8.4,4.2,16.1,10.6,19.4c0.7,0.3,0.4,1.4-0.1,1.4
				c-1.5,0.2-2.3,0.3-2.4,0.3c0,0,0,0,0,0c-8.6,1.6-14.6,3.5-17.7,8.5c-2.7,4.3-2.8,10.1-3,18.9l0,1.3c0,0.8,0.3,1.5,0.8,2.1
				c0.5,0.6,1.3,0.9,2.1,0.9h54.8c0.8,0,1.5-0.3,2.1-0.9c0.5-0.6,0.8-1.3,0.8-2.1L134.1,95.7z"/>
		</g>
		<g id="XMLID_8_">
			<path id="XMLID_9_" class="st0" d="M65.1,25.9c0.5-0.5,1.3-0.5,1.8,0l1.5,1.5l0.9-0.9c0.8-0.8,0.8-2.2,0-3.1l-3.1-3.1l-1.9-1.8
				c-0.8-0.8-2.2-0.8-3.1,0l-1.8,1.8l-5.2,5.2l-8.6,8.6l-1.3-1.3c-2-2-5.3-2-7.3,0l-5.4,5.4c-2,2-2,5.3,0,7.3l6.5,6.5
				c2,2,5.3,2,7.3,0l5.5-5.4c2-2,2-5.3,0-7.3l-1.2-1.2l7.1-7.1l2.5,2.5c0.8,0.8,2.2,0.8,3.1,0l1.1-1.1l-2.6-2.6
				c-0.5-0.5-0.5-1.3,0-1.8c0.5-0.5,1.3-0.5,1.8,0l2.6,2.6l1.5-1.5l-1.5-1.5C64.6,27.2,64.6,26.4,65.1,25.9z M42.9,47l-0.8,0.8
				c-0.5,0.5-1.3,0.5-1.8,0l-4.5-4.5c-0.5-0.5-0.5-1.3,0-1.8l0.8-0.8c0.5-0.5,1.3-0.5,1.8,0l4.5,4.5C43.4,45.7,43.4,46.5,42.9,47z"
				/>
		</g>
	</g>
</g>
</svg>
