<?xml version="1.0" encoding="utf-8"?>
<!-- Generator: Adobe Illustrator 19.0.0, SVG Export Plug-In . SVG Version: 6.00 Build 0)  -->
<svg version="1.1" id="Capa_1" xmlns="http://www.w3.org/2000/svg" xmlns:xlink="http://www.w3.org/1999/xlink" x="0px" y="0px"
	 viewBox="0 0 98.2 81.2" style="enable-background:new 0 0 98.2 81.2;" xml:space="preserve">
<style type="text/css">
	.st0{fill:#8BBF4C;}
</style>
<g>
	<g>
		<circle class="st0" cx="23.2" cy="35" r="4.9"/>
		<path class="st0" d="M69.8,31H36.6c-2.2,0-4,1.8-4,4s1.8,4,4,4h33.1c2.2,0,4-1.8,4-4C73.8,32.8,72,31,69.8,31z"/>
		<circle class="st0" cx="23.2" cy="51.2" r="4.9"/>
		<path class="st0" d="M69.8,47.1H36.6c-2.2,0-4,1.8-4,4s1.8,4,4,4h33.1c2.2,0,4-1.8,4-4C73.8,49,72,47.1,69.8,47.1z"/>
		<path class="st0" d="M68,68.9c-0.4,0.4-0.6,0.8-0.7,1.3l-1.4,8.2c-0.1,0.8,0.1,1.6,0.7,2.1c0.5,0.5,1.1,0.7,1.7,0.7
			c0.1,0,0.3,0,0.4,0l8.2-1.4c0.5-0.1,0.9-0.3,1.3-0.7l12.3-12.3L80.3,56.5L68,68.9z"/>
		<path class="st0" d="M97.5,56.3l-6.8-6.8c-0.5-0.5-1.1-0.7-1.7-0.7c-0.6,0-1.3,0.3-1.7,0.7l-4.7,4.7l10.2,10.2l4.7-4.7
			c0.5-0.5,0.7-1.1,0.7-1.7C98.2,57.4,98,56.8,97.5,56.3z"/>
		<path class="st0" d="M5.4,20.7h77.3v27.7l1.8-1.8c1-1,2.3-1.6,3.6-1.8V2.7c0-1.5-1.2-2.7-2.7-2.7H2.7C1.2,0,0,1.2,0,2.7v67.2
			c0,1.5,1.2,2.7,2.7,2.7h60.1l0.5-3.1c0.1-0.8,0.4-1.6,0.9-2.3H5.4V20.7z"/>
	</g>
</g>
</svg>
